<svg width="48" height="32" viewBox="0 0 48 32" fill="none" xmlns="http://www.w3.org/2000/svg">
<path d="M45.2571 0H2.74286C1.22802 0 0 1.19391 0 2.66667V29.3333C0 30.8061 1.22802 32 2.74286 32H45.2571C46.772 32 48 30.8061 48 29.3333V2.66667C48 1.19391 46.772 0 45.2571 0Z" fill="#016FD0"/>
<path fill-rule="evenodd" clip-rule="evenodd" d="M20.6552 17.3904L18.1222 11.873H14.8856V19.8064L11.2273 11.873H8.45975L4.80078 20.127H7.00535L7.75964 18.2604H11.9343L12.7317 20.127H16.953V13.9704L19.7206 20.127H21.6406L24.452 14.107V20.127H26.516V11.873H23.1862L20.6531 17.3904H20.6552ZM9.86684 16.479H8.60032L9.86684 13.6064V13.6977L11.1334 16.479H9.86684Z" fill="white"/>
<path d="M39.5118 15.8631L41.0128 14.3124L43.2002 11.8958H40.5904L38.2452 14.4037L35.9001 11.8958H27.6914V20.0584H35.6656L38.1513 17.3677L40.5904 20.1011H43.2002L41.0128 17.5931L39.5118 15.8631ZM34.5396 18.3711H29.802V16.7291H34.3963V15.1791H29.802V13.6738H34.5396L36.8848 15.8631L34.5396 18.3711Z" fill="white"/>
</svg>
