<svg width="20" height="20" viewBox="0 0 20 20" fill="none" xmlns="http://www.w3.org/2000/svg">
<path d="M16.0089 5.37781H8.43086C7.98903 5.37781 7.63086 5.73598 7.63086 6.17781V18.2178C7.63086 18.6596 7.98903 19.0178 8.43086 19.0178H16.0089C16.4507 19.0178 16.8089 18.6596 16.8089 18.2178V6.17781C16.8089 5.73598 16.4507 5.37781 16.0089 5.37781Z" stroke="#A2A2A2" stroke-width="1.6" stroke-miterlimit="10" stroke-linecap="square"/>
<path d="M12.3694 5.38008V1.78008C12.3708 1.67236 12.3505 1.56546 12.3096 1.46579C12.2687 1.36613 12.2081 1.27575 12.1314 1.20008C12.0557 1.12688 11.9661 1.06967 11.8678 1.03187C11.7695 0.994073 11.6646 0.976458 11.5594 0.980078H3.98141C3.77097 0.982708 3.57005 1.06815 3.42217 1.2179C3.2743 1.36764 3.19139 1.56963 3.19141 1.78008V13.7801C3.19139 13.9905 3.2743 14.1925 3.42217 14.3423C3.57005 14.492 3.77097 14.5774 3.98141 14.5801H7.63141" stroke="#A2A2A2" stroke-width="1.6" stroke-miterlimit="10" stroke-linecap="square"/>
</svg>
