<svg width="10" height="10" viewBox="0 0 10 10" fill="none" xmlns="http://www.w3.org/2000/svg">
<path d="M5 9.5C7.48528 9.5 9.5 7.48528 9.5 5C9.5 2.51472 7.48528 0.5 5 0.5C2.51472 0.5 0.5 2.51472 0.5 5C0.5 7.48528 2.51472 9.5 5 9.5Z" stroke="#A2A2A2" stroke-width="0.75" stroke-linecap="round" stroke-linejoin="round"/>
<path d="M5 4.99975C4.64409 5.03656 4.28791 4.93267 4.00761 4.71029C3.7273 4.48791 3.54511 4.1647 3.5 3.80975C3.54515 3.45406 3.72696 3.1299 4.00694 2.90592C4.28691 2.68194 4.64307 2.57572 5 2.60975" stroke="#A2A2A2" stroke-width="0.75" stroke-linecap="round" stroke-linejoin="round"/>
<path d="M5 5.00044C5.35591 4.96363 5.71209 5.06752 5.99239 5.2899C6.2727 5.51227 6.45489 5.83549 6.5 6.19044C6.45485 6.54613 6.27304 6.87028 5.99306 7.09427C5.71309 7.31825 5.35693 7.42447 5 7.39044" stroke="#A2A2A2" stroke-width="0.75" stroke-linecap="round" stroke-linejoin="round"/>
<path d="M3.5 7.38965H5" stroke="#A2A2A2" stroke-width="0.75" stroke-linecap="round" stroke-linejoin="round"/>
<path d="M6.5 2.61035H5" stroke="#A2A2A2" stroke-width="0.75" stroke-linecap="round" stroke-linejoin="round"/>
<path d="M5 1.7002V8.3002" stroke="#A2A2A2" stroke-width="0.75" stroke-linecap="round" stroke-linejoin="round"/>
</svg>
