<svg width="21" height="22" viewBox="0 0 21 22" fill="none" xmlns="http://www.w3.org/2000/svg">
<path d="M7.1 0H2.23C1.64 0 1.07 0.24 0.65 0.65C0.23 1.07 0 1.64 0 2.23V11.35C0 11.94 0.24 12.51 0.65 12.93C1.07 13.35 1.64 13.58 2.23 13.58H7.3C7.84 13.58 8.36 13.37 8.75 12.98C9.14 12.59 9.36 12.08 9.36 11.54V2.23C9.36 1.64 9.11 1.07 8.69 0.65C8.27 0.23 7.7 0 7.1 0Z" fill="#147EB5"/>
<path d="M17.71 8.02H12.72C12.18 8.02 11.66 8.23 11.27 8.62C10.88 9 10.66 9.52 10.66 10.06V19.37C10.66 19.96 10.91 20.53 11.33 20.95C11.75 21.37 12.32 21.6 12.92 21.6H17.72C18.31 21.6 18.88 21.36 19.3 20.95C19.72 20.53 19.95 19.96 19.95 19.37V10.25C19.95 9.66 19.71 9.09 19.3 8.67C18.89 8.25 18.31 8.02 17.72 8.02H17.71Z" fill="#147EB5"/>
<path d="M19.42 0.6C19.03 0.21 18.52 0 17.97 0H12.57C12.06 0 11.58 0.2 11.22 0.55C10.86 0.9 10.66 1.39 10.65 1.89V4.65C10.65 5.19 10.88 5.71 11.26 6.09C11.65 6.47 12.17 6.69 12.71 6.69H17.97C18.51 6.69 19.03 6.47 19.41 6.09C19.79 5.71 20.01 5.19 20.01 4.65V2.04C20.01 1.5 19.8 0.98 19.41 0.6H19.42Z" fill="#147EB5"/>
<path d="M7.3 14.9H2.04C1.5 14.9 0.98 15.11 0.6 15.5C0.22 15.88 0 16.4 0 16.94V19.56C0 20.1 0.21 20.62 0.6 21C0.98 21.38 1.5 21.6 2.04 21.6H7.44C7.95 21.6 8.43 21.4 8.79 21.05C9.15 20.7 9.35 20.21 9.36 19.71V16.95C9.36 16.41 9.13 15.89 8.75 15.51C8.36 15.13 7.84 14.91 7.3 14.91V14.9Z" fill="#147EB5"/>
</svg>
