<svg width="20" height="20" viewBox="0 0 24 24" xmlns="http://www.w3.org/2000/svg">
<path d="M9.09619 2.68807C9.29351 2.68807 9.48275 2.76646 9.62227 2.90599C9.7618 3.04551 9.84019 3.23475 9.84019 3.43207V12.7441C9.84019 12.8905 9.78203 13.0309 9.67851 13.1344C9.57499 13.2379 9.43459 13.2961 9.28819 13.2961H4.22419C4.02687 13.2961 3.83763 13.2177 3.6981 13.0782C3.55857 12.9386 3.48019 12.7494 3.48019 12.5521V3.43207C3.48019 3.23475 3.55857 3.04551 3.6981 2.90599C3.83763 2.76646 4.02687 2.68807 4.22419 2.68807H9.02419H9.09619ZM9.02419 1.20007H4.22419C3.63222 1.20007 3.06451 1.43523 2.64593 1.85381C2.22734 2.27239 1.99219 2.84011 1.99219 3.43207V12.5521C1.99219 13.144 2.22734 13.7118 2.64593 14.1303C3.06451 14.5489 3.63222 14.7841 4.22419 14.7841H9.28819C9.83146 14.7841 10.3528 14.57 10.7392 14.1881C11.1256 13.8062 11.3459 13.2873 11.3522 12.7441V3.43207C11.3459 2.83791 11.1054 2.27024 10.683 1.85233C10.2606 1.43443 9.69038 1.20004 9.09619 1.20007H9.02419Z" />
<path d="M19.7749 10.7041C19.8726 10.7041 19.9693 10.7233 20.0596 10.7607C20.1499 10.7981 20.2319 10.8529 20.301 10.922C20.3701 10.9911 20.4249 11.0731 20.4622 11.1633C20.4996 11.2536 20.5189 11.3504 20.5189 11.4481V20.5681C20.5189 20.6658 20.4996 20.7625 20.4622 20.8528C20.4249 20.943 20.3701 21.0251 20.301 21.0942C20.2319 21.1632 20.1499 21.218 20.0596 21.2554C19.9693 21.2928 19.8726 21.3121 19.7749 21.3121H14.9749C14.7776 21.3121 14.5883 21.2337 14.4488 21.0942C14.3093 20.9546 14.2309 20.7654 14.2309 20.5681V11.2561C14.2309 11.1097 14.289 10.9693 14.3926 10.8657C14.4961 10.7622 14.6365 10.7041 14.7829 10.7041H19.7749ZM19.7749 9.21606H14.7109C14.1676 9.21603 13.6462 9.43019 13.2598 9.81209C12.8734 10.194 12.6532 10.7128 12.6469 11.2561V20.5681C12.6532 21.1622 12.8937 21.7299 13.3161 22.1478C13.7385 22.5657 14.3087 22.8001 14.9029 22.8001H19.7029C20.2948 22.8001 20.8626 22.5649 21.2811 22.1463C21.6997 21.7277 21.9349 21.16 21.9349 20.5681V11.4481C21.9349 10.8561 21.6997 10.2884 21.2811 9.8698C20.8626 9.45122 20.2948 9.21606 19.7029 9.21606H19.7749Z" />
<path d="M19.9669 2.68807C20.0394 2.68807 20.1112 2.70235 20.1781 2.73009C20.2451 2.75783 20.3059 2.79849 20.3572 2.84975C20.4085 2.90101 20.4491 2.96186 20.4769 3.02883C20.5046 3.0958 20.5189 3.16758 20.5189 3.24007V5.85607C20.5189 5.92856 20.5046 6.00034 20.4769 6.06732C20.4491 6.13429 20.4085 6.19514 20.3572 6.2464C20.3059 6.29765 20.2451 6.33831 20.1781 6.36606C20.1112 6.3938 20.0394 6.40807 19.9669 6.40807H14.7109C14.5645 6.40807 14.4241 6.34992 14.3206 6.2464C14.217 6.14288 14.1589 6.00247 14.1589 5.85607V3.09607C14.1589 2.98786 14.2019 2.88409 14.2784 2.80757C14.3549 2.73106 14.4587 2.68807 14.5669 2.68807H19.9669ZM19.9669 1.20007H14.5669C14.0618 1.20003 13.577 1.39902 13.2177 1.75392C12.8583 2.10881 12.6532 2.59103 12.6469 3.09607V5.85607C12.6532 6.39931 12.8734 6.91815 13.2598 7.30005C13.6462 7.68195 14.1676 7.89611 14.7109 7.89607H19.9669C20.5079 7.89607 21.0268 7.68115 21.4094 7.29857C21.792 6.916 22.0069 6.39712 22.0069 5.85607V3.24007C22.0069 2.69903 21.792 2.18015 21.4094 1.79758C21.0268 1.415 20.5079 1.20007 19.9669 1.20007Z" />
<path d="M9.28819 17.5918C9.36068 17.5918 9.43246 17.606 9.49943 17.6338C9.5664 17.6615 9.62725 17.7022 9.67851 17.7534C9.72977 17.8047 9.77043 17.8655 9.79817 17.9325C9.82591 17.9995 9.84019 18.0713 9.84019 18.1438V20.9038C9.84019 21.012 9.7972 21.1157 9.72069 21.1923C9.64417 21.2688 9.5404 21.3118 9.43219 21.3118H4.03219C3.88579 21.3118 3.74538 21.2536 3.64186 21.1501C3.53834 21.0466 3.48019 20.9062 3.48019 20.7598V18.1438C3.48019 17.9974 3.53834 17.857 3.64186 17.7534C3.74538 17.6499 3.88579 17.5918 4.03219 17.5918H9.28819ZM9.28819 16.1038H4.03219C3.49115 16.1038 2.97226 16.3187 2.58969 16.7013C2.20712 17.0838 1.99219 17.6027 1.99219 18.1438V20.7598C1.99219 21.3008 2.20712 21.8197 2.58969 22.2023C2.97226 22.5848 3.49115 22.7998 4.03219 22.7998H9.43219C9.93727 22.7998 10.422 22.6008 10.7814 22.2459C11.1408 21.891 11.3459 21.4088 11.3522 20.9038V18.1438C11.3459 17.6005 11.1256 17.0817 10.7392 16.6998C10.3528 16.3179 9.83146 16.1037 9.28819 16.1038Z" />
</svg>
