<svg width="48" height="32" viewBox="0 0 48 32" fill="none" xmlns="http://www.w3.org/2000/svg">
<path d="M45.2571 0H2.74286C1.22802 0 0 1.19391 0 2.66667V29.3333C0 30.8061 1.22802 32 2.74286 32H45.2571C46.772 32 48 30.8061 48 29.3333V2.66667C48 1.19391 46.772 0 45.2571 0Z" fill="#0079BE"/>
<path d="M13.9438 16.038C13.9108 17.6709 14.4543 19.2655 15.4836 20.5562C16.513 21.8469 17.9661 22.7557 19.6009 23.1314V8.94604C17.9663 9.32164 16.5134 10.2303 15.4841 11.5207C14.4547 12.8111 13.9111 14.4054 13.9438 16.038Z" fill="white"/>
<path d="M23.0342 8.94604V23.132C24.6527 22.7272 26.0867 21.8106 27.1107 20.5265C28.1347 19.2425 28.6904 17.6638 28.6904 16.039C28.6904 14.4143 28.1347 12.8356 27.1107 11.5515C26.0867 10.2675 24.6527 9.35089 23.0342 8.94604Z" fill="white"/>
<path d="M27.2195 3.00073H20.7807C17.2704 3.00073 13.9039 4.35621 11.4214 6.76908C8.93896 9.18196 7.54388 12.4546 7.54297 15.8674V16.1274C7.54297 19.5407 8.93766 22.8143 11.4202 25.2279C13.9028 27.6414 17.2698 28.9974 20.7807 28.9974H27.2195C28.9581 28.9978 30.6797 28.6652 32.2859 28.0186C33.8922 27.372 35.3517 26.424 36.581 25.2288C37.8104 24.0337 38.7854 22.6147 39.4505 21.0531C40.1156 19.4914 40.4577 17.8176 40.4573 16.1274V15.8674C40.4573 14.1774 40.1148 12.504 39.4495 10.9428C38.7842 9.3815 37.8091 7.96293 36.5798 6.76811C35.3505 5.57328 33.8912 4.6256 32.2851 3.97919C30.6791 3.33277 28.9578 3.0003 27.2195 3.00073ZM21.6433 26.5807C19.4987 26.5809 17.4022 25.9627 15.619 24.8044C13.8357 23.6461 12.4458 21.9997 11.625 20.0734C10.8042 18.1471 10.5894 16.0275 11.0077 13.9825C11.426 11.9375 12.4587 10.059 13.9751 8.58465C15.4915 7.11025 17.4236 6.10616 19.527 5.69934C21.6304 5.29252 23.8106 5.50124 25.792 6.29912C27.7734 7.097 29.4669 8.4482 30.6584 10.1818C31.8499 11.9155 32.4858 13.9537 32.4858 16.0387C32.4858 18.8345 31.3435 21.5158 29.3102 23.4928C27.2768 25.4698 24.519 26.5806 21.6433 26.5807Z" fill="white"/>
<path d="M21.6437 5.49683C19.4991 5.49669 17.4025 6.11487 15.6193 7.27319C13.836 8.43151 12.4461 10.0779 11.6253 12.0043C10.8045 13.9306 10.5898 16.0503 11.0081 18.0953C11.4265 20.1403 12.4592 22.0188 13.9757 23.4931C15.4922 24.9675 17.4243 25.9715 19.5278 26.3783C21.6312 26.785 23.8115 26.5762 25.7928 25.7782C27.7742 24.9803 29.4677 23.629 30.6591 21.8952C31.8505 20.1615 32.4863 18.1232 32.4862 16.0382C32.4862 13.2424 31.3439 10.5612 29.3105 8.58431C27.2771 6.60743 24.5193 5.49683 21.6437 5.49683ZM19.6037 23.1315C17.9855 22.7264 16.5518 21.8098 15.5281 20.5258C14.5044 19.2418 13.9488 17.6634 13.9488 16.0388C13.9488 14.4143 14.5044 12.8358 15.5281 11.5519C16.5518 10.2679 17.9855 9.35123 19.6037 8.94616V23.1315ZM23.0323 23.1315V8.94616C24.6508 9.351 26.0848 10.2676 27.1088 11.5517C28.1328 12.8357 28.6885 14.4144 28.6885 16.0392C28.6885 17.6639 28.1328 19.2426 27.1088 20.5267C26.0848 21.8107 24.6508 22.7273 23.0323 23.1322V23.1315Z" fill="#0079BE"/>
</svg>
