<svg width="10" height="10" viewBox="0 0 10 10" fill="none" xmlns="http://www.w3.org/2000/svg">
<path d="M0.663263 0.0232488C0.783673 0.00270167 0.906083 -0.00358988 1.02796 0.00450408C3.66164 0.00450408 6.29531 0.00450408 8.92898 0.00450408C9.07822 -0.0066816 9.2283 0.00299205 9.37487 0.0332461C9.51279 0.0724758 9.63862 0.145808 9.74077 0.246486C9.84292 0.347163 9.91811 0.471946 9.95939 0.609335C9.99645 0.76684 10.0083 0.929238 9.99436 1.09045V9.1357C9.99615 9.32955 9.93233 9.51829 9.81327 9.67122C9.69421 9.82415 9.52693 9.93227 9.33865 9.97797C9.18508 9.99831 9.02998 10.0046 8.87528 9.99671C6.18582 9.99671 3.49636 9.99671 0.806895 9.99671C0.587567 9.98574 0.381011 9.8902 0.230576 9.73013C0.0801415 9.57006 -0.00247792 9.35791 5.66368e-05 9.1382C5.66368e-05 6.36148 5.66368e-05 3.58517 5.66368e-05 0.809279C0.0109358 0.624173 0.0814218 0.447565 0.20097 0.305877C0.320519 0.164188 0.482703 0.0650346 0.663263 0.0232488Z" fill="#00AF51"/>
<path d="M3.63514 2.79252C4.04355 2.78502 4.45198 2.79252 4.86164 2.79252C4.87289 3.98968 4.86164 5.18685 4.86164 6.38401C5.51985 6.38401 6.17681 6.38401 6.83377 6.38401C6.84251 6.66769 6.83377 6.95385 6.83377 7.23877C5.7659 7.23877 4.69678 7.23877 3.62891 7.23877C3.62891 5.75585 3.62891 4.27294 3.62891 2.79002L3.63514 2.79252Z" fill="white"/>
</svg>
