<svg width="11" height="12" viewBox="0 0 16 17" fill="none" xmlns="http://www.w3.org/2000/svg">
<path d="M15.2775 7.28047C14.8782 7.28047 14.5536 7.60368 14.5536 8.00429C14.5536 9.64204 14.4993 11.2974 14.392 12.9257C14.3662 13.3073 14.2032 13.6672 13.9329 13.9374C13.6627 14.2076 13.3041 14.3706 12.9225 14.3951C11.2887 14.5023 9.63178 14.5567 8.00068 14.5567C6.36958 14.5567 4.71267 14.5023 3.0775 14.3951C2.69587 14.3706 2.33732 14.2076 2.06706 13.936C1.79679 13.6658 1.63382 13.3059 1.60801 12.9243C1.50072 11.2961 1.4464 9.63932 1.4464 8.00293C1.4464 6.36654 1.50072 4.70977 1.60801 3.08152C1.63382 2.69993 1.79679 2.34005 2.06706 2.06981C2.33732 1.79957 2.69587 1.63661 3.0775 1.61216C4.71132 1.50488 6.36686 1.45056 7.99932 1.45056C8.39861 1.45056 8.7232 1.12736 8.7232 0.726746C8.7232 0.326135 8.39997 0.00292969 7.99932 0.00292969C6.33563 0.00292969 4.64748 0.0586078 2.98243 0.168606C2.2504 0.216136 1.56048 0.528477 1.04304 1.04723C0.525592 1.56599 0.213225 2.2545 0.164332 2.98646C0.0556829 4.6473 0 6.3353 0 8.00429C0 9.67327 0.0556829 11.3613 0.164332 13.0221C0.213225 13.7541 0.525592 14.4426 1.04304 14.96C1.56184 15.4787 2.2504 15.7911 2.98243 15.84C4.64748 15.95 6.33563 16.0056 7.99932 16.0056C9.66302 16.0056 11.3512 15.95 13.0162 15.84C13.7482 15.7924 14.4368 15.4801 14.9556 14.9613C15.4744 14.4426 15.7854 13.7541 15.8343 13.0221C15.9443 11.3626 15.9986 9.67463 15.9986 8.00565C15.9986 7.60639 15.6754 7.28183 15.2748 7.28183L15.2775 7.28047Z" fill="#72B1D2"/>
<path d="M10.8944 1.45035H13.5305L7.48823 7.49211C7.20575 7.77457 7.20575 8.23222 7.48823 8.51468C7.62948 8.65591 7.81418 8.72653 8.00024 8.72653C8.18631 8.72653 8.37101 8.65591 8.51226 8.51468L14.5532 2.47292V5.11017C14.5532 5.50942 14.8764 5.83398 15.277 5.83398C15.6777 5.83398 16.0009 5.51078 16.0009 5.11017V0.723816C16.0009 0.70073 16.0009 0.679002 15.9968 0.655916C15.9968 0.649126 15.9955 0.643694 15.9941 0.636904C15.9914 0.61925 15.9901 0.602954 15.986 0.5853C15.986 0.579868 15.9833 0.574436 15.9819 0.569004C15.9778 0.551349 15.9738 0.533695 15.9683 0.516041C15.9683 0.511967 15.9656 0.509251 15.9643 0.505177C15.9588 0.486165 15.952 0.467153 15.9439 0.448141C15.9439 0.445425 15.9412 0.444067 15.9412 0.441351C15.933 0.422339 15.9235 0.403327 15.914 0.384315C15.914 0.381599 15.9113 0.380241 15.9099 0.377525C15.9004 0.358513 15.8896 0.340859 15.8773 0.323205C15.8746 0.317773 15.8705 0.313699 15.8665 0.309625C15.857 0.294687 15.8461 0.281107 15.8352 0.266169C15.8203 0.247157 15.804 0.229503 15.7863 0.213207C15.7687 0.195553 15.751 0.179256 15.732 0.164318C15.7184 0.153454 15.7049 0.143948 15.6913 0.134442C15.6858 0.130368 15.6804 0.126294 15.675 0.12222C15.6573 0.109998 15.6397 0.100492 15.622 0.0909862C15.6193 0.0909862 15.6166 0.0882702 15.6152 0.0869122C15.5962 0.0774062 15.5772 0.0679002 15.5582 0.0597522C15.5555 0.0597522 15.5541 0.0570362 15.5514 0.0570362C15.5324 0.0488881 15.5134 0.0434561 15.4943 0.0366661C15.4903 0.0366661 15.4876 0.0339501 15.4835 0.0325921C15.4658 0.0271601 15.4482 0.0230861 15.4292 0.0190121C15.4237 0.0190121 15.4196 0.016296 15.4142 0.014938C15.3966 0.012222 15.3789 0.00950602 15.3626 0.00679002C15.3572 0.00679002 15.3504 0.00543201 15.345 0.00407401C15.3219 0.001358 15.2974 0 15.2743 0H10.8917C10.4924 0 10.1678 0.323205 10.1678 0.723816C10.1678 1.12443 10.491 1.44763 10.8917 1.44763L10.8944 1.45035Z" fill="#72B1D2"/>
</svg>
