<svg width="20" height="20" viewBox="0 0 28 28" xmlns="http://www.w3.org/2000/svg">
<path d="M20.1885 26.2645H17.6405C17.2046 26.2572 16.7886 26.0809 16.4804 25.7726C16.1721 25.4644 15.9957 25.0483 15.9885 24.6125V18.2004C15.9885 17.6732 15.7791 17.1675 15.4063 16.7947C15.0334 16.4219 14.5278 16.2125 14.0005 16.2125C13.4733 16.2125 12.9676 16.4219 12.5948 16.7947C12.222 17.1675 12.0125 17.6732 12.0125 18.2004V24.6125C12.0125 25.0506 11.8385 25.4708 11.5287 25.7806C11.2189 26.0904 10.7987 26.2645 10.3605 26.2645H7.81252C7.11934 26.2571 6.45705 25.9765 5.96949 25.4837C5.48194 24.9909 5.20848 24.3257 5.20852 23.6324V14.6445H3.97652C3.71642 14.6197 3.46843 14.5227 3.26061 14.3643C3.05278 14.206 2.89341 13.9927 2.80052 13.7484C2.68968 13.4862 2.65978 13.1967 2.71467 12.9173C2.76955 12.6379 2.90671 12.3813 3.10852 12.1805L12.9925 2.18445C13.2602 1.91772 13.6227 1.76794 14.0005 1.76794C14.3784 1.76794 14.7409 1.91772 15.0085 2.18445L25.0325 12.1805C25.2343 12.3813 25.3715 12.6379 25.4264 12.9173C25.4813 13.1967 25.4514 13.4862 25.3405 13.7484C25.2381 14.0138 25.0574 14.2417 24.8223 14.4017C24.5872 14.5618 24.3089 14.6465 24.0245 14.6445H22.7925V23.6324C22.7926 24.3257 22.5191 24.9909 22.0316 25.4837C21.544 25.9765 20.8817 26.2571 20.1885 26.2645ZM18.0885 24.1644H20.1885C20.3247 24.1573 20.4529 24.0981 20.5467 23.9991C20.6405 23.9001 20.6927 23.7688 20.6925 23.6324V13.6084C20.6925 13.3263 20.8046 13.0556 21.0042 12.8561C21.2037 12.6566 21.4743 12.5445 21.7565 12.5445H22.4005L14.0005 4.14445L5.60052 12.5445H6.27252C6.55471 12.5445 6.82535 12.6566 7.02489 12.8561C7.22442 13.0556 7.33652 13.3263 7.33652 13.6084V23.6324C7.33633 23.7688 7.38853 23.9001 7.48232 23.9991C7.57611 24.0981 7.70434 24.1573 7.84052 24.1644H9.94052V18.2004C9.94052 17.1162 10.3712 16.0764 11.1379 15.3098C11.9045 14.5431 12.9443 14.1124 14.0285 14.1124C15.1127 14.1124 16.1525 14.5431 16.9192 15.3098C17.6858 16.0764 18.1165 17.1162 18.1165 18.2004L18.0885 24.1644Z" />
</svg>
