<svg width="23" height="25" viewBox="0 0 23 25" fill="none" xmlns="http://www.w3.org/2000/svg">
<path d="M22.74 11.15C22.69 10.87 22.55 10.61 22.35 10.41L12.32 0.42C12.05 0.15 11.69 0 11.31 0C10.93 0 10.57 0.15 10.3 0.42L0.420011 10.41C0.220011 10.61 0.0800111 10.87 0.0300111 11.15C-0.0199889 11.43 1.11237e-05 11.72 0.120011 11.98C0.210011 12.22 0.370011 12.44 0.580011 12.6C0.790011 12.76 1.04001 12.86 1.30001 12.88H2.53001V21.87C2.53001 22.56 2.80001 23.23 3.29001 23.72C3.78001 24.21 4.44001 24.49 5.13001 24.5H7.68001C8.12001 24.5 8.54001 24.33 8.85001 24.02C9.16001 23.71 9.33001 23.29 9.33001 22.85V16.44C9.33001 15.91 9.54001 15.41 9.91001 15.03C10.28 14.66 10.79 14.45 11.32 14.45C11.85 14.45 12.35 14.66 12.72 15.03C13.09 15.4 13.3 15.91 13.3 16.44V22.85C13.3 23.29 13.48 23.7 13.79 24.01C14.1 24.32 14.52 24.49 14.95 24.5H17.5C18.19 24.5 18.85 24.21 19.34 23.72C19.83 23.23 20.1 22.56 20.1 21.87V12.88H21.33C21.61 12.88 21.89 12.8 22.13 12.64C22.36 12.48 22.55 12.25 22.65 11.99C22.76 11.73 22.79 11.44 22.74 11.16V11.15Z" fill="#147EB5"/>
</svg>
