<svg width="18" height="18" viewBox="0 0 16 16" fill="none" xmlns="http://www.w3.org/2000/svg">
<path d="M8.00078 15.1998C11.9772 15.1998 15.2008 11.9763 15.2008 7.9998C15.2008 4.02335 11.9772 0.799805 8.00078 0.799805C4.02433 0.799805 0.800781 4.02335 0.800781 7.9998C0.800781 11.9763 4.02433 15.1998 8.00078 15.1998Z" stroke="#A2A2A2" stroke-width="1.3" stroke-miterlimit="10"/>
<path d="M8.97541 2.75195C8.79016 2.75253 8.60718 2.79282 8.43882 2.8701C8.27046 2.94738 8.12062 3.05986 7.99941 3.19995C7.87627 3.30726 7.7781 3.44019 7.71176 3.58945C7.64543 3.7387 7.61254 3.90065 7.61541 4.06395C7.64597 4.34895 7.78314 4.61185 7.99941 4.79995C8.25652 5.02478 8.58587 5.14971 8.92741 5.15195C9.28647 5.1682 9.63737 5.04165 9.90341 4.79995C10.0257 4.69196 10.1233 4.55889 10.1896 4.4098C10.2558 4.26071 10.2892 4.0991 10.2874 3.93595C10.2584 3.65049 10.121 3.38704 9.90341 3.19995C9.78954 3.06351 9.64784 2.95296 9.4878 2.8757C9.32776 2.79844 9.15307 2.75625 8.97541 2.75195Z" fill="#A2A2A2"/>
<path d="M9.32899 12.3043C9.12333 12.3214 8.91726 12.2768 8.73699 12.1763C8.6688 12.108 8.61741 12.0247 8.58687 11.9331C8.55633 11.8414 8.54747 11.744 8.56099 11.6483C8.54977 11.4939 8.54977 11.3388 8.56099 11.1843V10.9923C8.65381 10.5472 8.77676 10.1088 8.92899 9.68034C9.08899 9.13634 9.23299 8.54434 9.29699 8.33634V7.68034C9.30179 7.49348 9.2656 7.30783 9.19096 7.13645C9.11633 6.96507 9.00507 6.81212 8.86499 6.68834C8.51554 6.41316 8.07692 6.27644 7.63299 6.30434C7.3169 6.30551 7.00323 6.3596 6.70499 6.46434L6.36899 6.56034C5.98499 6.72034 5.63299 6.97634 5.60099 7.13634C5.56899 7.29634 5.60099 7.40834 5.76099 7.36034H5.90499C6.04814 7.33812 6.19385 7.33812 6.33699 7.36034C6.54535 7.33335 6.75631 7.38467 6.92899 7.50434C6.99023 7.5736 7.03615 7.65501 7.06372 7.74324C7.09129 7.83148 7.09991 7.92455 7.08899 8.01634C7.10398 8.17065 7.10398 8.32604 7.08899 8.48034V8.64034C6.99156 9.09488 6.8687 9.54358 6.72099 9.98434C6.59109 10.3832 6.48424 10.7892 6.40099 11.2003V11.8403C6.39576 12.0196 6.42872 12.1979 6.49769 12.3634C6.56665 12.5289 6.67004 12.6779 6.80099 12.8003C7.13292 13.0911 7.55973 13.2505 8.00099 13.2483C8.31116 13.2553 8.62006 13.2065 8.91299 13.1043H9.18499C9.52893 12.9959 9.83078 12.7835 10.049 12.4963C10.049 12.3363 10.049 12.2243 9.92099 12.2723H9.74499C9.60832 12.3011 9.46846 12.3119 9.32899 12.3043Z" fill="#A2A2A2"/>
</svg>
