<svg width="48" height="32" viewBox="0 0 48 32" fill="none" xmlns="http://www.w3.org/2000/svg">
<path d="M45.2571 0H2.74286C1.22802 0 0 1.19391 0 2.66667V29.3333C0 30.8061 1.22802 32 2.74286 32H45.2571C46.772 32 48 30.8061 48 29.3333V2.66667C48 1.19391 46.772 0 45.2571 0Z" fill="#F1F2F8"/>
<path d="M28.9743 24.2879H19.1445V7.11328H28.9743V24.2879Z" fill="#FF5F00"/>
<path d="M19.7738 15.6993C19.7723 14.0453 20.1578 12.4126 20.9011 10.9249C21.6444 9.43711 22.7261 8.13325 24.0643 7.11195C22.407 5.8454 20.4165 5.05774 18.3205 4.839C16.2245 4.62027 14.1074 4.97929 12.2113 5.87502C10.3153 6.77075 8.71666 8.16705 7.59824 9.90433C6.47982 11.6416 5.88672 13.6498 5.88672 15.6993C5.88672 17.7488 6.47982 19.757 7.59824 21.4942C8.71666 23.2315 10.3153 24.6278 12.2113 25.5236C14.1074 26.4193 16.2245 26.7783 18.3205 26.5596C20.4165 26.3408 22.407 25.5532 24.0643 24.2866C22.7261 23.2653 21.6444 21.9615 20.9011 20.4737C20.1578 18.9859 19.7723 17.3533 19.7738 15.6993Z" fill="#EB001B"/>
<path d="M42.2316 15.6995C42.2318 17.749 41.6388 19.7572 40.5205 21.4945C39.4021 23.2318 37.8036 24.6282 35.9075 25.5239C34.0114 26.4197 31.8944 26.7787 29.7984 26.5599C27.7024 26.3412 25.712 25.5534 24.0547 24.2868C25.3919 23.2646 26.4729 21.9606 27.2162 20.473C27.9595 18.9855 28.3457 17.3533 28.3457 15.6995C28.3457 14.0457 27.9595 12.4135 27.2162 10.9259C26.4729 9.4384 25.3919 8.13435 24.0547 7.11214C25.712 5.84551 27.7024 5.05779 29.7984 4.83902C31.8944 4.62025 34.0114 4.97926 35.9075 5.87502C37.8036 6.77077 39.4021 8.16713 40.5205 9.90445C41.6388 11.6418 42.2318 13.65 42.2316 15.6995Z" fill="#F79E1B"/>
</svg>
