<svg width="16" height="16" viewBox="0 0 16 16" fill="none" xmlns="http://www.w3.org/2000/svg">
<path d="M7.99938 1.59998C6.76877 1.59998 5.58857 2.08883 4.7184 2.959C3.84823 3.82917 3.35938 5.00937 3.35938 6.23998C3.35938 9.43998 7.51938 14.064 7.69537 14.24C7.73293 14.2839 7.77955 14.3191 7.83202 14.3433C7.8845 14.3675 7.9416 14.38 7.99938 14.38C8.05715 14.38 8.11425 14.3675 8.16673 14.3433C8.2192 14.3191 8.26582 14.2839 8.30338 14.24C8.47938 14.048 12.6394 9.43998 12.6394 6.23998C12.6394 5.63064 12.5194 5.02728 12.2862 4.46432C12.053 3.90137 11.7112 3.38986 11.2804 2.959C10.8495 2.52814 10.338 2.18636 9.77503 1.95317C9.21208 1.71999 8.60871 1.59998 7.99938 1.59998ZM7.99938 8.57598C7.53736 8.57598 7.08572 8.43897 6.70156 8.18229C6.31741 7.92561 6.018 7.56077 5.84119 7.13392C5.66439 6.70708 5.61813 6.23738 5.70826 5.78424C5.7984 5.3311 6.02088 4.91487 6.34757 4.58817C6.67427 4.26148 7.0905 4.039 7.54364 3.94886C7.99678 3.85873 8.46648 3.90499 8.89332 4.08179C9.32017 4.2586 9.68501 4.55801 9.94169 4.94216C10.1984 5.32632 10.3354 5.77796 10.3354 6.23998C10.3354 6.85952 10.0893 7.45369 9.65118 7.89178C9.21309 8.32986 8.61892 8.57598 7.99938 8.57598Z" fill="#FF6666"/>
</svg>
