<svg width="10" height="10" viewBox="0 0 10 10" fill="none" xmlns="http://www.w3.org/2000/svg">
<path d="M4.99961 1C4.23048 1 3.49286 1.30553 2.949 1.84939C2.40514 2.39325 2.09961 3.13087 2.09961 3.9C2.09961 5.9 4.69961 8.79 4.80961 8.9C4.83308 8.92744 4.86222 8.94948 4.89502 8.96459C4.92781 8.9797 4.9635 8.98752 4.99961 8.98752C5.03572 8.98752 5.0714 8.9797 5.1042 8.96459C5.137 8.94948 5.16614 8.92744 5.18961 8.9C5.29961 8.78 7.89961 5.9 7.89961 3.9C7.89961 3.51917 7.8246 3.14206 7.67886 2.79022C7.53312 2.43837 7.31951 2.11868 7.05022 1.84939C6.78093 1.5801 6.46124 1.36649 6.10939 1.22075C5.75755 1.07501 5.38044 1 4.99961 1V1ZM4.99961 5.36C4.71085 5.36 4.42857 5.27437 4.18848 5.11395C3.94838 4.95352 3.76125 4.7255 3.65075 4.45872C3.54024 4.19194 3.51133 3.89838 3.56766 3.61517C3.624 3.33196 3.76305 3.07181 3.96723 2.86762C4.17142 2.66344 4.43157 2.52439 4.71478 2.46805C4.99799 2.41172 5.29155 2.44063 5.55833 2.55114C5.82511 2.66164 6.05313 2.84877 6.21356 3.08887C6.37398 3.32896 6.45961 3.61124 6.45961 3.9C6.45961 4.28722 6.30579 4.65857 6.03199 4.93238C5.75818 5.20618 5.38683 5.36 4.99961 5.36V5.36Z" stroke="#A2A2A2" stroke-width="0.5"/>
</svg>
