<svg width="16" height="16" viewBox="0 0 16 16" xmlns="http://www.w3.org/2000/svg">
<path d="M1.2107 14.0108C0.995912 14.2256 0.995912 14.5738 1.2107 14.7886C1.42549 15.0034 1.77373 15.0034 1.98852 14.7886L1.2107 14.0108ZM1.98852 14.7886L7.12452 9.65258L6.3467 8.87476L1.2107 14.0108L1.98852 14.7886Z" fill="#A2A2A2"/>
<path d="M10.4805 7.40761L12.0805 5.80761C12.1254 5.75914 12.1799 5.72048 12.2405 5.69404C12.301 5.66759 12.3664 5.65395 12.4325 5.65395C12.4986 5.65395 12.564 5.66759 12.6246 5.69404C12.6851 5.72048 12.7396 5.75914 12.7845 5.80761L13.2005 6.20761L14.4005 5.00761L10.9925 1.59961L9.72852 2.86361L10.1285 3.27961C10.177 3.32454 10.2156 3.379 10.2421 3.43957C10.2685 3.50014 10.2822 3.56552 10.2822 3.63161C10.2822 3.6977 10.2685 3.76308 10.2421 3.82365C10.2156 3.88422 10.177 3.93868 10.1285 3.98361L8.52852 5.58361C7.74519 5.1986 6.86091 5.06872 5.99995 5.21221C5.13899 5.3557 4.34464 5.76536 3.72852 6.38361L9.68052 12.2236C10.3022 11.6063 10.714 10.809 10.8576 9.94469C11.0012 9.08038 10.8692 8.19281 10.4805 7.40761Z" stroke="#A2A2A2" stroke-width="1.1" stroke-linecap="round" stroke-linejoin="round"/>
</svg>
