<svg width="32" height="32" viewBox="0 0 32 32" xmlns="http://www.w3.org/2000/svg">
<path d="M8.53873 26.7791C8.44406 26.4822 8.2682 26.2178 8.03105 26.0157C7.7939 25.8136 7.50493 25.6818 7.19682 25.6354C7.10753 25.6214 7.01728 25.6144 6.9269 25.6146C6.76271 25.6152 6.5992 25.6358 6.43995 25.6758L4.15821 18.1725L6.56029 23.058L6.56516 23.0685C6.67056 23.2723 6.83036 23.4429 7.02683 23.5614C7.22331 23.6799 7.44877 23.7416 7.67821 23.7398C7.86358 23.7395 8.04666 23.6987 8.21455 23.6201C8.27376 23.5933 8.33807 23.5795 8.40308 23.5798C8.48693 23.5797 8.56919 23.6027 8.64085 23.6463C8.7125 23.6898 8.77079 23.7523 8.80934 23.8267C8.95699 24.1191 9.2133 24.3419 9.52331 24.4475C9.83333 24.5531 10.1724 24.533 10.4678 24.3916L26.9944 16.6267L27.8431 19.4344C27.6342 19.4938 27.4392 19.594 27.2693 19.7292C27.0993 19.8644 26.9579 20.0319 26.853 20.222C26.7481 20.4121 26.6819 20.6211 26.6581 20.837C26.6344 21.0528 26.6536 21.2712 26.7147 21.4796H26.7112L8.53873 26.7791ZM9.93003 23.7182C9.85096 23.7185 9.77337 23.6968 9.70601 23.6553C9.63865 23.6139 9.5842 23.5545 9.54882 23.4838C9.44168 23.2733 9.27842 23.0965 9.07707 22.973C8.87573 22.8495 8.64415 22.784 8.40795 22.784H8.3989C8.21262 22.7841 8.02862 22.8249 7.85977 22.9036C7.75949 22.9504 7.64505 22.957 7.54007 22.9219C7.43509 22.8868 7.34758 22.8128 7.2956 22.7151L4.85316 17.744L4.73629 17.506L4.67021 17.3725L4.4949 17.0163L3.82986 15.6674C3.80162 15.6124 3.78729 15.5512 3.78812 15.4893C3.78898 15.4114 3.81193 15.3354 3.85429 15.27C3.89664 15.2046 3.95668 15.1526 4.02742 15.12C4.24061 15.0223 4.42129 14.8655 4.54805 14.6682C4.67481 14.4709 4.74231 14.2414 4.74255 14.0069C4.74209 13.8216 4.69926 13.6389 4.61734 13.4726C4.59324 13.4239 4.57916 13.3709 4.57594 13.3166C4.57271 13.2624 4.5804 13.208 4.59855 13.1568C4.61717 13.1052 4.64589 13.0578 4.68304 13.0175C4.72019 12.9771 4.76502 12.9445 4.8149 12.9217L21.8939 4.90291C21.9503 4.87589 22.0122 4.86209 22.0747 4.86256C22.1537 4.86253 22.231 4.88443 22.2982 4.92583C22.3654 4.96723 22.4198 5.02649 22.4552 5.097C22.5622 5.30645 22.725 5.48227 22.9255 5.60503C23.1261 5.7278 23.3568 5.79272 23.5919 5.79265C23.7812 5.7921 23.9681 5.75007 24.1394 5.66952C24.1968 5.64231 24.2595 5.62806 24.3231 5.62778C24.3704 5.62793 24.4174 5.63568 24.4622 5.65073C24.5669 5.68574 24.6534 5.76078 24.7029 5.85943L28.1693 12.9008C28.1932 12.9499 28.207 13.0032 28.2099 13.0577C28.2128 13.1122 28.2048 13.1667 28.1863 13.2181C28.1678 13.2694 28.1393 13.3165 28.1023 13.3567C28.0653 13.3968 28.0207 13.4291 27.9711 13.4518C27.8221 13.5201 27.6883 13.6175 27.5776 13.7383C27.4668 13.859 27.3814 14.0008 27.3262 14.1551C27.2717 14.3078 27.2486 14.4699 27.2581 14.6317C27.2677 14.7935 27.3098 14.9518 27.3819 15.097C27.4246 15.1865 27.4325 15.2886 27.4041 15.3836C27.4036 15.388 27.4036 15.3924 27.4041 15.3968C27.4047 15.4017 27.4047 15.4066 27.4041 15.4114C27.3854 15.4625 27.3568 15.5094 27.3199 15.5494C27.283 15.5894 27.2386 15.6217 27.1892 15.6445L27.1349 15.6709L27.0424 15.7147L26.7641 15.8462L10.1095 23.6744C10.0528 23.7019 9.99032 23.7157 9.92725 23.7147L9.93003 23.7182ZM12.4789 19.0184C12.4269 19.0184 12.3756 19.03 12.3286 19.0525L11.5189 19.4379C11.4783 19.4569 11.442 19.4839 11.412 19.5173C11.382 19.5506 11.359 19.5896 11.3443 19.632C11.33 19.6731 11.3241 19.7168 11.327 19.7602C11.3299 19.8037 11.3414 19.8462 11.361 19.8852L11.7554 20.6754C11.7842 20.7325 11.8284 20.7804 11.883 20.8137C11.9375 20.8471 12.0004 20.8644 12.0643 20.864C12.1163 20.864 12.1676 20.8523 12.2146 20.8299L13.0243 20.4445C13.0649 20.4255 13.1013 20.3985 13.1313 20.3652C13.1613 20.3318 13.1843 20.2928 13.1989 20.2504C13.2132 20.2092 13.2191 20.1656 13.2162 20.1221C13.2134 20.0786 13.2018 20.0361 13.1822 19.9972L12.7878 19.2062C12.7591 19.1483 12.7146 19.0998 12.6594 19.0661C12.6043 19.0325 12.5407 19.0152 12.4761 19.0163L12.4789 19.0184ZM17.7874 8.89734C17.7499 8.89729 17.7128 8.90561 17.6789 8.92169L10.4253 12.3756C10.3959 12.3892 10.3695 12.4085 10.3477 12.4323C10.3258 12.4562 10.3089 12.4842 10.298 12.5147C10.2879 12.5444 10.2838 12.5759 10.2861 12.6072C10.2884 12.6385 10.2969 12.6691 10.3112 12.697L13.8445 19.7808C13.8647 19.8228 13.8965 19.8581 13.936 19.8827C13.9755 19.9073 14.0212 19.9202 14.0678 19.92C14.1053 19.92 14.1424 19.9117 14.1763 19.8956L21.4285 16.4452C21.4578 16.4315 21.4842 16.4122 21.5061 16.3883C21.5279 16.3645 21.5448 16.3365 21.5558 16.306C21.5661 16.2764 21.5703 16.245 21.5683 16.2137C21.5662 16.1824 21.558 16.1518 21.5439 16.1238L18.01 9.03647C17.99 8.99454 17.9584 8.95919 17.9189 8.93456C17.8795 8.90992 17.8339 8.89701 17.7874 8.89734ZM11.457 16.9725C11.4052 16.9726 11.3541 16.9842 11.3074 17.0066L10.4977 17.392C10.457 17.4111 10.4206 17.4382 10.3906 17.4717C10.3607 17.5051 10.3377 17.5442 10.3231 17.5867C10.3088 17.6279 10.3029 17.6715 10.3057 17.715C10.3086 17.7585 10.3202 17.801 10.3398 17.84L10.7342 18.6302C10.7629 18.6874 10.8071 18.7353 10.8617 18.7686C10.9163 18.802 10.9791 18.8193 11.0431 18.8187C11.0948 18.8187 11.1459 18.8073 11.1926 18.7853L12.0024 18.4C12.043 18.3809 12.0793 18.3539 12.1093 18.3206C12.1393 18.2872 12.1623 18.2482 12.177 18.2059C12.1913 18.1647 12.1971 18.1211 12.1943 18.0776C12.1914 18.0341 12.1798 17.9916 12.1603 17.9526L11.7659 17.1624C11.7367 17.1058 11.6925 17.0582 11.6382 17.025C11.5838 16.9917 11.5214 16.9741 11.4577 16.9739L11.457 16.9725ZM10.4392 14.9321C10.3872 14.9321 10.3359 14.9438 10.289 14.9662L9.47925 15.3516C9.43862 15.3706 9.40223 15.3976 9.37224 15.4309C9.34224 15.4643 9.31925 15.5033 9.30464 15.5457C9.29023 15.587 9.28429 15.6307 9.28715 15.6743C9.29002 15.718 9.30165 15.7606 9.32134 15.7996L9.71577 16.5899C9.75721 16.6701 9.8282 16.731 9.91375 16.7598C9.99929 16.7886 10.0927 16.7831 10.1742 16.7443L10.9839 16.3589C11.0245 16.34 11.0609 16.3131 11.0908 16.2799C11.1208 16.2467 11.1439 16.2078 11.1586 16.1655C11.1729 16.1242 11.1788 16.0805 11.176 16.0369C11.1731 15.9932 11.1615 15.9506 11.1419 15.9116L10.7446 15.12C10.7156 15.0639 10.6718 15.0167 10.618 14.9837C10.5642 14.9506 10.5024 14.9328 10.4392 14.9321ZM22.849 14.0813C22.797 14.0813 22.7456 14.093 22.6987 14.1154L21.889 14.5008C21.8484 14.5197 21.8121 14.5466 21.7821 14.5798C21.7521 14.613 21.7291 14.6519 21.7144 14.6942C21.6998 14.7356 21.6938 14.7794 21.6965 14.8231C21.6993 14.8669 21.7108 14.9096 21.7304 14.9488L22.1248 15.7391C22.1663 15.8193 22.2372 15.8802 22.3228 15.909C22.4083 15.9379 22.5017 15.9323 22.5833 15.8935L23.393 15.5081C23.4336 15.4891 23.47 15.4622 23.5 15.4288C23.53 15.3955 23.553 15.3564 23.5676 15.314C23.5819 15.2729 23.5878 15.2292 23.5849 15.1857C23.5821 15.1422 23.5705 15.0998 23.5509 15.0608L23.1565 14.2706C23.128 14.2134 23.0841 14.1654 23.0298 14.132C22.9754 14.0986 22.9128 14.081 22.849 14.0813ZM9.4229 12.8904C9.3709 12.8904 9.31955 12.902 9.27264 12.9245L8.4629 13.3099C8.42234 13.3288 8.38599 13.3556 8.356 13.3889C8.32601 13.4221 8.30299 13.461 8.28829 13.5033C8.27393 13.5445 8.268 13.5883 8.27087 13.6319C8.27374 13.6755 8.28534 13.7181 8.30499 13.7572L8.69942 14.5481C8.72813 14.6051 8.77221 14.6529 8.82668 14.6861C8.88114 14.7193 8.94382 14.7365 9.0076 14.736C9.05955 14.7362 9.11089 14.7248 9.15786 14.7026L9.96551 14.3165C10.0062 14.2973 10.0426 14.2702 10.0725 14.2368C10.1025 14.2033 10.1255 14.1642 10.1401 14.1217C10.1544 14.0805 10.1603 14.0369 10.1575 13.9934C10.1546 13.9499 10.143 13.9074 10.1234 13.8685L9.72899 13.0782C9.70044 13.0216 9.65668 12.974 9.60262 12.9408C9.54856 12.9077 9.48633 12.8902 9.4229 12.8904ZM21.8326 12.0396C21.7809 12.0397 21.7298 12.0513 21.6831 12.0737L20.8733 12.4591C20.8327 12.4782 20.7963 12.5053 20.7663 12.5388C20.7363 12.5722 20.7133 12.6114 20.6987 12.6539C20.6844 12.695 20.6785 12.7387 20.6814 12.7822C20.6843 12.8257 20.6958 12.8681 20.7154 12.9071L21.1099 13.6973C21.1386 13.7545 21.1828 13.8024 21.2373 13.8358C21.2919 13.8691 21.3548 13.8864 21.4187 13.8859C21.4704 13.8859 21.5215 13.8745 21.5683 13.8525L22.378 13.4671C22.4186 13.448 22.455 13.421 22.485 13.3877C22.5149 13.3544 22.538 13.3154 22.5526 13.273C22.5669 13.2318 22.5728 13.1882 22.5699 13.1447C22.5671 13.1012 22.5555 13.0587 22.5359 13.0198L22.1415 12.2295C22.1123 12.1721 22.0676 12.1239 22.0126 12.0904C21.9576 12.0569 21.8943 12.0393 21.8299 12.0396H21.8326ZM20.8114 9.99717C20.7594 9.99715 20.7081 10.0088 20.6612 10.0313L19.8514 10.4166C19.8108 10.4358 19.7743 10.4628 19.7443 10.4963C19.7143 10.5298 19.6914 10.5689 19.6768 10.6114C19.6625 10.6526 19.6566 10.6962 19.6595 10.7397C19.6623 10.7832 19.6739 10.8257 19.6935 10.8646L20.0879 11.6549C20.1294 11.7351 20.2004 11.7961 20.2859 11.8249C20.3715 11.8537 20.4649 11.8481 20.5464 11.8093L21.3561 11.424C21.3967 11.405 21.4331 11.378 21.4631 11.3446C21.4931 11.3113 21.5161 11.2723 21.5307 11.2299C21.545 11.1887 21.5509 11.1451 21.5481 11.1016C21.5452 11.0581 21.5336 11.0156 21.514 10.9766L21.1196 10.1857C21.0911 10.1285 21.047 10.0806 20.9925 10.0472C20.9381 10.0139 20.8753 9.99656 20.8114 9.99717ZM19.793 7.95543C19.741 7.95542 19.6896 7.96706 19.6427 7.98952L18.833 8.37491C18.7924 8.39383 18.7561 8.42069 18.7261 8.45391C18.6961 8.48713 18.6731 8.52603 18.6584 8.5683C18.644 8.60958 18.6381 8.65333 18.641 8.69695C18.6438 8.74057 18.6554 8.78317 18.6751 8.82221L19.0695 9.61317C19.0982 9.67013 19.1423 9.71791 19.1968 9.75111C19.2512 9.7843 19.3139 9.80158 19.3777 9.80099C19.4296 9.80123 19.481 9.78982 19.5279 9.7676L20.3377 9.3843C20.3783 9.3653 20.4147 9.33833 20.4447 9.30499C20.4747 9.27165 20.4977 9.23261 20.5123 9.19021C20.5266 9.14904 20.5325 9.10541 20.5296 9.06191C20.5268 9.01841 20.5152 8.97593 20.4956 8.93699L20.1012 8.14395C20.0726 8.08686 20.0285 8.03894 19.974 8.00561C19.9196 7.97229 19.8568 7.9549 19.793 7.95543Z" fill="#72B1D2"/>
<path d="M15.8524 17.2396C15.7601 17.2405 15.6695 17.2155 15.5908 17.1674C15.5121 17.1194 15.4484 17.0501 15.4071 16.9676L13.5428 13.232C13.5057 13.16 13.4881 13.0796 13.4917 12.9987C13.4952 12.9178 13.5198 12.8393 13.563 12.7708C13.6067 12.6993 13.668 12.6401 13.7411 12.599C13.8141 12.5578 13.8965 12.536 13.9804 12.5356C14.0133 12.5358 14.0461 12.5391 14.0784 12.5454L17.5567 13.2028C17.633 13.2162 17.705 13.2476 17.7667 13.2944C17.8284 13.3413 17.878 13.4021 17.9115 13.472C17.9441 13.5386 17.9605 13.6119 17.9593 13.686C17.9581 13.7602 17.9393 13.833 17.9045 13.8984L16.292 16.9774C16.2503 17.0576 16.1871 17.1246 16.1094 17.171C16.0318 17.2173 15.9428 17.2411 15.8524 17.2396Z" fill="#72B1D2"/>
</svg>
