<svg width="24" height="24" viewBox="0 0 24 24" fill="none" xmlns="http://www.w3.org/2000/svg">
<path d="M10.2234 6.74379V3.64779C10.2234 3.22133 10.3929 2.81233 10.6944 2.51077C10.996 2.20921 11.405 2.03979 11.8314 2.03979H21.1914C21.6179 2.03979 22.0269 2.20921 22.3285 2.51077C22.63 2.81233 22.7994 3.22133 22.7994 3.64779V20.7598C22.7994 21.0781 22.673 21.3833 22.448 21.6083C22.2229 21.8334 21.9177 21.9598 21.5994 21.9598H11.8314C11.405 21.9598 10.996 21.7904 10.6944 21.4888C10.3929 21.1873 10.2234 20.7783 10.2234 20.3518V9.4078" stroke="#147eb5" stroke-width="1.3" stroke-linecap="round" stroke-linejoin="round"/>
<path d="M16.5121 6.48011C16.3804 6.18981 16.1921 5.92865 15.9584 5.71189C15.7247 5.49513 15.4501 5.32711 15.1507 5.21763C14.8513 5.10815 14.5331 5.05941 14.2147 5.07426C13.8962 5.08911 13.584 5.16724 13.2961 5.30411L3.00006 10.1041C2.36912 10.3866 1.854 10.8767 1.54052 11.4928C1.22704 12.109 1.13412 12.8139 1.27724 13.4902C1.42036 14.1665 1.79088 14.7734 2.32708 15.2097C2.86328 15.646 3.53278 15.8854 4.22406 15.8881C5.01773 15.8755 5.77462 15.5514 6.33139 14.9856C6.88816 14.4199 7.20016 13.6579 7.20006 12.8641C7.20748 12.2212 6.99588 11.5948 6.60006 11.0881L16.5121 6.48011Z" stroke="#147eb5" stroke-width="1.3" stroke-linecap="round" stroke-linejoin="round"/>
<path d="M4.224 13.5358C4.56862 13.5358 4.848 13.2565 4.848 12.9118C4.848 12.5672 4.56862 12.2878 4.224 12.2878C3.87937 12.2878 3.6 12.5672 3.6 12.9118C3.6 13.2565 3.87937 13.5358 4.224 13.5358Z" fill="#147eb5"/>
<path d="M9.48047 9.74414L10.2245 10.1041" stroke="#147eb5" stroke-width="1.3" stroke-linecap="round" stroke-linejoin="round"/>
<path d="M3.76798 9.74418L2.99998 9.38418C2.50468 9.16801 2.07696 8.82205 1.76203 8.38287C1.4471 7.9437 1.25666 7.4276 1.21081 6.88912C1.16497 6.35065 1.26544 5.80978 1.5016 5.32369C1.73775 4.83759 2.10083 4.42432 2.55247 4.12753C3.0041 3.83074 3.52752 3.66146 4.06742 3.63758C4.60732 3.61369 5.14364 3.73609 5.61972 3.99184C6.0958 4.24759 6.49395 4.6272 6.77211 5.09054C7.05027 5.55388 7.1981 6.08376 7.19998 6.62418C7.20351 7.27386 6.99261 7.90655 6.59998 8.42418" stroke="#147eb5" stroke-width="1.3" stroke-linecap="round" stroke-linejoin="round"/>
<path d="M10.2234 12.7681L6.62344 11.0881" stroke="#147eb5" stroke-width="1.3" stroke-linecap="round" stroke-linejoin="round"/>
<path d="M4.224 7.20003C4.56862 7.20003 4.848 6.92065 4.848 6.57603C4.848 6.2314 4.56862 5.95203 4.224 5.95203C3.87937 5.95203 3.6 6.2314 3.6 6.57603C3.6 6.92065 3.87937 7.20003 4.224 7.20003Z" fill="#147eb5"/>
<path d="M20.4006 10.3681C20.7452 10.3681 21.0246 10.0887 21.0246 9.74412C21.0246 9.39949 20.7452 9.12012 20.4006 9.12012C20.0559 9.12012 19.7766 9.39949 19.7766 9.74412C19.7766 10.0887 20.0559 10.3681 20.4006 10.3681Z" fill="#147eb5"/>
<path d="M17.8318 10.3681C17.7084 10.3681 17.5878 10.3315 17.4851 10.263C17.3825 10.1944 17.3025 10.0969 17.2553 9.98291C17.2081 9.86889 17.1957 9.74343 17.2198 9.62238C17.2439 9.50134 17.3033 9.39015 17.3906 9.30288C17.4778 9.21562 17.589 9.15618 17.7101 9.13211C17.8311 9.10803 17.9566 9.12039 18.0706 9.16762C18.1846 9.21485 18.2821 9.29483 18.3506 9.39744C18.4192 9.50006 18.4558 9.6207 18.4558 9.74412C18.4558 9.90961 18.3901 10.0683 18.273 10.1854C18.156 10.3024 17.9973 10.3681 17.8318 10.3681Z" fill="#147eb5"/>
<path d="M15.2631 10.3681C15.6077 10.3681 15.8871 10.0887 15.8871 9.74412C15.8871 9.39949 15.6077 9.12012 15.2631 9.12012C14.9184 9.12012 14.6391 9.39949 14.6391 9.74412C14.6391 10.0887 14.9184 10.3681 15.2631 10.3681Z" fill="#147eb5"/>
<path d="M12.6967 10.3681C13.0413 10.3681 13.3207 10.0887 13.3207 9.74412C13.3207 9.39949 13.0413 9.12012 12.6967 9.12012C12.352 9.12012 12.0727 9.39949 12.0727 9.74412C12.0727 10.0887 12.352 10.3681 12.6967 10.3681Z" fill="#147eb5"/>
</svg>
