<svg width="32" height="32" viewBox="0 0 32 32" fill="none" xmlns="http://www.w3.org/2000/svg">
<path d="M8.53873 26.7788C8.44406 26.482 8.2682 26.2175 8.03105 26.0154C7.7939 25.8133 7.50493 25.6816 7.19682 25.6352C7.10753 25.6212 7.01728 25.6142 6.9269 25.6143C6.76271 25.615 6.5992 25.6355 6.43995 25.6755L4.15821 18.1722L6.56029 23.0578L6.56516 23.0682C6.67056 23.272 6.83036 23.4426 7.02683 23.5611C7.22331 23.6796 7.44877 23.7414 7.67821 23.7395C7.86358 23.7393 8.04666 23.6985 8.21455 23.6199C8.27376 23.593 8.33807 23.5793 8.40308 23.5795C8.48693 23.5795 8.56919 23.6025 8.64085 23.646C8.7125 23.6896 8.77079 23.752 8.80934 23.8265C8.95699 24.1188 9.2133 24.3417 9.52331 24.4473C9.83333 24.5529 10.1724 24.5328 10.4678 24.3914L26.9944 16.6265L27.8431 19.4341C27.6342 19.4936 27.4392 19.5938 27.2693 19.729C27.0993 19.8642 26.9579 20.0316 26.853 20.2218C26.7481 20.4119 26.6819 20.6209 26.6581 20.8367C26.6344 21.0526 26.6536 21.271 26.7147 21.4794H26.7112L8.53873 26.7788ZM9.93003 23.718C9.85096 23.7183 9.77337 23.6965 9.70601 23.6551C9.63865 23.6137 9.5842 23.5542 9.54882 23.4835C9.44168 23.273 9.27842 23.0962 9.07707 22.9727C8.87573 22.8492 8.64415 22.7838 8.40795 22.7837H8.3989C8.21262 22.7838 8.02862 22.8247 7.85977 22.9034C7.75949 22.9502 7.64505 22.9567 7.54007 22.9217C7.43509 22.8866 7.34758 22.8126 7.2956 22.7148L4.85316 17.7437L4.73629 17.5058L4.67021 17.3722L4.4949 17.0161L3.82986 15.6672C3.80162 15.6121 3.78729 15.551 3.78812 15.4891C3.78898 15.4112 3.81193 15.3351 3.85429 15.2698C3.89664 15.2044 3.95668 15.1523 4.02742 15.1197C4.24061 15.022 4.42129 14.8652 4.54805 14.668C4.67481 14.4707 4.74231 14.2412 4.74255 14.0067C4.74209 13.8214 4.69926 13.6386 4.61734 13.4724C4.59324 13.4237 4.57916 13.3706 4.57594 13.3164C4.57271 13.2621 4.5804 13.2078 4.59855 13.1566C4.61717 13.105 4.64589 13.0576 4.68304 13.0172C4.72019 12.9768 4.76502 12.9443 4.8149 12.9214L21.8939 4.90266C21.9503 4.87565 22.0122 4.86185 22.0747 4.86232C22.1537 4.86228 22.231 4.88419 22.2982 4.92558C22.3654 4.96698 22.4198 5.02624 22.4552 5.09675C22.5622 5.30621 22.725 5.48203 22.9255 5.60479C23.1261 5.72755 23.3568 5.79248 23.5919 5.7924C23.7812 5.79186 23.9681 5.74983 24.1394 5.66927C24.1968 5.64207 24.2595 5.62782 24.3231 5.62753C24.3704 5.62769 24.4174 5.63544 24.4622 5.65049C24.5669 5.6855 24.6534 5.76053 24.7029 5.85919L28.1693 12.9006C28.1932 12.9497 28.207 13.003 28.2099 13.0575C28.2128 13.112 28.2048 13.1665 28.1863 13.2178C28.1678 13.2692 28.1393 13.3163 28.1023 13.3564C28.0653 13.3966 28.0207 13.4289 27.9711 13.4515C27.8221 13.5198 27.6883 13.6172 27.5776 13.738C27.4668 13.8588 27.3814 14.0005 27.3262 14.1548C27.2717 14.3075 27.2486 14.4696 27.2581 14.6315C27.2677 14.7933 27.3098 14.9515 27.3819 15.0968C27.4246 15.1862 27.4325 15.2884 27.4041 15.3834C27.4036 15.3878 27.4036 15.3922 27.4041 15.3966C27.4047 15.4014 27.4047 15.4063 27.4041 15.4112C27.3854 15.4623 27.3568 15.5092 27.3199 15.5492C27.283 15.5892 27.2386 15.6215 27.1892 15.6442L27.1349 15.6707L27.0424 15.7145L26.7641 15.846L10.1095 23.6741C10.0528 23.7017 9.99032 23.7155 9.92725 23.7145L9.93003 23.718ZM12.4789 19.0181C12.4269 19.0181 12.3756 19.0298 12.3286 19.0522L11.5189 19.4376C11.4783 19.4567 11.442 19.4837 11.412 19.517C11.382 19.5503 11.359 19.5893 11.3443 19.6317C11.33 19.6729 11.3241 19.7165 11.327 19.76C11.3299 19.8035 11.3414 19.846 11.361 19.8849L11.7554 20.6752C11.7842 20.7323 11.8284 20.7802 11.883 20.8135C11.9375 20.8468 12.0004 20.8642 12.0643 20.8637C12.1163 20.8637 12.1676 20.8521 12.2146 20.8296L13.0243 20.4442C13.0649 20.4252 13.1013 20.3983 13.1313 20.3649C13.1613 20.3316 13.1843 20.2925 13.1989 20.2501C13.2132 20.209 13.2191 20.1653 13.2162 20.1218C13.2134 20.0783 13.2018 20.0359 13.1822 19.9969L12.7878 19.206C12.7591 19.1481 12.7146 19.0995 12.6594 19.0659C12.6043 19.0323 12.5407 19.015 12.4761 19.0161L12.4789 19.0181ZM17.7874 8.8971C17.7499 8.89705 17.7128 8.90537 17.6789 8.92145L10.4253 12.3754C10.3959 12.3889 10.3695 12.4082 10.3477 12.4321C10.3258 12.456 10.3089 12.484 10.298 12.5145C10.2879 12.5442 10.2838 12.5757 10.2861 12.607C10.2884 12.6383 10.2969 12.6688 10.3112 12.6968L13.8445 19.7806C13.8647 19.8225 13.8965 19.8578 13.936 19.8825C13.9755 19.9071 14.0212 19.92 14.0678 19.9197C14.1053 19.9198 14.1424 19.9115 14.1763 19.8954L21.4285 16.4449C21.4578 16.4313 21.4842 16.412 21.5061 16.3881C21.5279 16.3642 21.5448 16.3362 21.5558 16.3058C21.5661 16.2762 21.5703 16.2448 21.5683 16.2135C21.5662 16.1822 21.558 16.1516 21.5439 16.1235L18.01 9.03623C17.99 8.9943 17.9584 8.95895 17.9189 8.93431C17.8795 8.90968 17.8339 8.89677 17.7874 8.8971ZM11.457 16.9722C11.4052 16.9723 11.3541 16.984 11.3074 17.0063L10.4977 17.3917C10.457 17.4108 10.4206 17.438 10.3906 17.4714C10.3607 17.5049 10.3377 17.544 10.3231 17.5865C10.3088 17.6277 10.3029 17.6713 10.3057 17.7148C10.3086 17.7583 10.3202 17.8008 10.3398 17.8397L10.7342 18.63C10.7629 18.6871 10.8071 18.7351 10.8617 18.7684C10.9163 18.8017 10.9791 18.8191 11.0431 18.8185C11.0948 18.8185 11.1459 18.8071 11.1926 18.7851L12.0024 18.3997C12.043 18.3806 12.0793 18.3536 12.1093 18.3203C12.1393 18.287 12.1623 18.248 12.177 18.2056C12.1913 18.1644 12.1971 18.1208 12.1943 18.0773C12.1914 18.0338 12.1798 17.9914 12.1603 17.9524L11.7659 17.1621C11.7367 17.1055 11.6925 17.058 11.6382 17.0247C11.5838 16.9915 11.5214 16.9738 11.4577 16.9736L11.457 16.9722ZM10.4392 14.9319C10.3872 14.9319 10.3359 14.9435 10.289 14.966L9.47925 15.3514C9.43862 15.3704 9.40223 15.3973 9.37224 15.4307C9.34224 15.464 9.31925 15.503 9.30464 15.5454C9.29023 15.5867 9.28429 15.6305 9.28715 15.6741C9.29002 15.7177 9.30165 15.7603 9.32134 15.7994L9.71577 16.5896C9.75721 16.6698 9.8282 16.7308 9.91375 16.7596C9.99929 16.7884 10.0927 16.7828 10.1742 16.7441L10.9839 16.3587C11.0245 16.3397 11.0609 16.3129 11.0908 16.2797C11.1208 16.2464 11.1439 16.2075 11.1586 16.1653C11.1729 16.124 11.1788 16.0802 11.176 16.0366C11.1731 15.993 11.1615 15.9504 11.1419 15.9114L10.7446 15.1197C10.7156 15.0636 10.6718 15.0165 10.618 14.9834C10.5642 14.9503 10.5024 14.9325 10.4392 14.9319ZM22.849 14.0811C22.797 14.0811 22.7456 14.0927 22.6987 14.1152L21.889 14.5006C21.8484 14.5195 21.8121 14.5464 21.7821 14.5796C21.7521 14.6128 21.7291 14.6517 21.7144 14.694C21.6998 14.7353 21.6938 14.7792 21.6965 14.8229C21.6993 14.8666 21.7108 14.9094 21.7304 14.9486L22.1248 15.7388C22.1663 15.819 22.2372 15.88 22.3228 15.9088C22.4083 15.9376 22.5017 15.9321 22.5833 15.8933L23.393 15.5079C23.4336 15.4889 23.47 15.4619 23.5 15.4286C23.53 15.3952 23.553 15.3562 23.5676 15.3138C23.5819 15.2726 23.5878 15.229 23.5849 15.1855C23.5821 15.142 23.5705 15.0995 23.5509 15.0606L23.1565 14.2703C23.128 14.2132 23.0841 14.1652 23.0298 14.1318C22.9754 14.0983 22.9128 14.0808 22.849 14.0811ZM9.4229 12.8901C9.3709 12.8901 9.31955 12.9018 9.27264 12.9242L8.4629 13.3096C8.42234 13.3285 8.38599 13.3554 8.356 13.3886C8.32601 13.4218 8.30299 13.4607 8.28829 13.503C8.27393 13.5443 8.268 13.588 8.27087 13.6317C8.27374 13.6753 8.28534 13.7179 8.30499 13.7569L8.69942 14.5479C8.72813 14.6048 8.77221 14.6526 8.82668 14.6858C8.88114 14.719 8.94382 14.7363 9.0076 14.7357C9.05955 14.7359 9.11089 14.7245 9.15786 14.7023L9.96551 14.3162C10.0062 14.2971 10.0426 14.27 10.0725 14.2365C10.1025 14.2031 10.1255 14.1639 10.1401 14.1214C10.1544 14.0803 10.1603 14.0366 10.1575 13.9931C10.1546 13.9496 10.143 13.9072 10.1234 13.8682L9.72899 13.078C9.70044 13.0213 9.65668 12.9738 9.60262 12.9406C9.54856 12.9074 9.48633 12.8899 9.4229 12.8901ZM21.8326 12.0394C21.7809 12.0394 21.7298 12.0511 21.6831 12.0734L20.8733 12.4588C20.8327 12.478 20.7963 12.5051 20.7663 12.5385C20.7363 12.572 20.7133 12.6111 20.6987 12.6536C20.6844 12.6948 20.6785 12.7384 20.6814 12.7819C20.6843 12.8254 20.6958 12.8679 20.7154 12.9068L21.1099 13.6971C21.1386 13.7542 21.1828 13.8022 21.2373 13.8355C21.2919 13.8688 21.3548 13.8862 21.4187 13.8856C21.4704 13.8856 21.5215 13.8742 21.5683 13.8522L22.378 13.4668C22.4186 13.4478 22.455 13.4208 22.485 13.3874C22.5149 13.3541 22.538 13.3151 22.5526 13.2727C22.5669 13.2316 22.5728 13.1879 22.5699 13.1445C22.5671 13.101 22.5555 13.0585 22.5359 13.0195L22.1415 12.2293C22.1123 12.1719 22.0676 12.1237 22.0126 12.0902C21.9576 12.0566 21.8943 12.039 21.8299 12.0394H21.8326ZM20.8114 9.99692C20.7594 9.99691 20.7081 10.0086 20.6612 10.031L19.8514 10.4164C19.8108 10.4355 19.7743 10.4626 19.7443 10.4961C19.7143 10.5295 19.6914 10.5687 19.6768 10.6112C19.6625 10.6524 19.6566 10.696 19.6595 10.7395C19.6623 10.783 19.6739 10.8255 19.6935 10.8644L20.0879 11.6547C20.1294 11.7349 20.2004 11.7958 20.2859 11.8246C20.3715 11.8534 20.4649 11.8479 20.5464 11.8091L21.3561 11.4237C21.3967 11.4047 21.4331 11.3777 21.4631 11.3444C21.4931 11.3111 21.5161 11.272 21.5307 11.2296C21.545 11.1884 21.5509 11.1448 21.5481 11.1013C21.5452 11.0578 21.5336 11.0153 21.514 10.9764L21.1196 10.1854C21.0911 10.1283 21.047 10.0803 20.9925 10.047C20.9381 10.0137 20.8753 9.99632 20.8114 9.99692ZM19.793 7.95519C19.741 7.95517 19.6896 7.96682 19.6427 7.98927L18.833 8.37466C18.7924 8.39358 18.7561 8.42045 18.7261 8.45367C18.6961 8.48688 18.6731 8.52578 18.6584 8.56805C18.644 8.60934 18.6381 8.65309 18.641 8.69671C18.6438 8.74032 18.6554 8.78292 18.6751 8.82197L19.0695 9.61292C19.0982 9.66988 19.1423 9.71767 19.1968 9.75086C19.2512 9.78406 19.3139 9.80134 19.3777 9.80075C19.4296 9.80098 19.481 9.78957 19.5279 9.76736L20.3377 9.38405C20.3783 9.36506 20.4147 9.33809 20.4447 9.30474C20.4747 9.2714 20.4977 9.23237 20.5123 9.18997C20.5266 9.14879 20.5325 9.10516 20.5296 9.06167C20.5268 9.01817 20.5152 8.97569 20.4956 8.93675L20.1012 8.14371C20.0726 8.08662 20.0285 8.03869 19.974 8.00537C19.9196 7.97205 19.8568 7.95466 19.793 7.95519Z" fill="#66CF97"/>
<path d="M15.8524 17.2392C15.7601 17.2401 15.6695 17.215 15.5908 17.167C15.5121 17.1189 15.4484 17.0496 15.4071 16.9672L13.5428 13.2315C13.5057 13.1595 13.4881 13.0791 13.4917 12.9982C13.4952 12.9173 13.5198 12.8388 13.563 12.7703C13.6067 12.6988 13.668 12.6396 13.7411 12.5985C13.8141 12.5573 13.8965 12.5355 13.9804 12.5352C14.0133 12.5353 14.0461 12.5386 14.0784 12.5449L17.5567 13.2023C17.633 13.2157 17.705 13.2471 17.7667 13.294C17.8284 13.3408 17.878 13.4016 17.9115 13.4715C17.9441 13.5381 17.9605 13.6114 17.9593 13.6856C17.9581 13.7597 17.9393 13.8325 17.9045 13.8979L16.292 16.9769C16.2503 17.0571 16.1871 17.1241 16.1094 17.1705C16.0318 17.2168 15.9428 17.2406 15.8524 17.2392Z" fill="#66CF97"/>
</svg>
