<svg width="23" height="21" viewBox="0 0 23 21" fill="none" xmlns="http://www.w3.org/2000/svg">
<path d="M22.13 0.62C21.74 0.23 21.19 0 20.64 0H11.28C10.73 0 10.18 0.23 9.79001 0.62C9.40001 1.01 9.17001 1.56 9.17001 2.11V4.71L7.26001 5.6C7.28001 5.44 7.30001 5.28 7.30001 5.11C7.30001 4.45 7.13001 3.81 6.80001 3.24C6.47001 2.67 5.99001 2.21 5.41001 1.89C4.83001 1.57 4.18001 1.42 3.52001 1.44C2.86001 1.46 2.22001 1.66 1.67001 2.02C1.12001 2.38 0.670013 2.87 0.380013 3.46C0.0900131 4.05 -0.0399869 4.71 0.0100131 5.37C0.0600131 6.02 0.280013 6.65 0.660013 7.19C0.950013 7.6 1.33001 7.95 1.75001 8.21C1.18001 8.56 0.710013 9.06 0.410013 9.66C0.0300131 10.41 -0.0799869 11.27 0.0900131 12.09C0.260013 12.91 0.710013 13.65 1.37001 14.18C2.02001 14.71 2.84001 15 3.69001 15C4.66001 14.98 5.57001 14.59 6.25001 13.9C6.93001 13.21 7.31001 12.29 7.31001 11.33C7.31001 11.1 7.28001 10.87 7.24001 10.64L9.18001 11.55V18.82C9.18001 19.38 9.41001 19.92 9.80001 20.31C10.19 20.7 10.74 20.93 11.29 20.93H21.06C21.51 20.93 21.94 20.75 22.26 20.43C22.58 20.11 22.76 19.68 22.76 19.23V2.11C22.76 1.55 22.54 1.02 22.14 0.62H22.13ZM3.67001 4C4.24001 4 4.71001 4.47 4.71001 5.04C4.71001 5.61 4.25001 6.08 3.67001 6.08C3.09001 6.08 2.63001 5.61 2.63001 5.04C2.63001 4.47 3.09001 4 3.67001 4ZM3.67001 12.27C3.10001 12.27 2.63001 11.8 2.63001 11.23C2.63001 10.66 3.09001 10.19 3.67001 10.19C4.25001 10.19 4.71001 10.66 4.71001 11.23C4.71001 11.8 4.25001 12.27 3.67001 12.27ZM9.05001 10.39H9.17001V10.44L9.05001 10.39ZM12.14 8.83C11.79 8.83 11.52 8.55 11.52 8.21C11.52 7.87 11.8 7.59 12.14 7.59C12.48 7.59 12.76 7.87 12.76 8.21C12.76 8.55 12.48 8.83 12.14 8.83ZM14.71 8.83C14.37 8.83 14.09 8.55 14.09 8.21C14.09 7.87 14.37 7.59 14.71 7.59C15.05 7.59 15.33 7.87 15.33 8.21C15.33 8.55 15.05 8.83 14.71 8.83ZM9.67001 7.87L9.18001 8.1V5.21H9.67001L12.76 3.77C13.05 3.63 13.36 3.55 13.68 3.54C14 3.53 14.32 3.57 14.62 3.68C14.92 3.79 15.19 3.96 15.43 4.17C15.66 4.39 15.85 4.65 15.98 4.94L9.69001 7.86L9.67001 7.87ZM17.72 8.65C17.6 8.77 17.44 8.83 17.28 8.83C17.16 8.83 17.04 8.79 16.93 8.72C16.83 8.65 16.75 8.55 16.7 8.44C16.65 8.33 16.64 8.2 16.67 8.08C16.69 7.96 16.75 7.85 16.84 7.76C16.93 7.67 17.04 7.61 17.16 7.59C17.28 7.57 17.41 7.58 17.52 7.63C17.63 7.68 17.73 7.76 17.8 7.86C17.87 7.96 17.9 8.08 17.9 8.21C17.9 8.38 17.83 8.53 17.72 8.65ZM19.85 8.83C19.51 8.83 19.23 8.55 19.23 8.21C19.23 7.87 19.51 7.59 19.85 7.59C20.19 7.59 20.47 7.87 20.47 8.21C20.47 8.55 20.19 8.83 19.85 8.83Z" fill="#147EB5"/>
</svg>
