<svg width="16" height="16" viewBox="0 0 16 16" fill="none" xmlns="http://www.w3.org/2000/svg">
<path d="M7.99993 15.2C11.9764 15.2 15.1999 11.9764 15.1999 7.99999C15.1999 4.02354 11.9764 0.799988 7.99993 0.799988C4.02348 0.799988 0.799927 4.02354 0.799927 7.99999C0.799927 11.9764 4.02348 15.2 7.99993 15.2Z" stroke="#A2A2A2" stroke-width="1.3" stroke-miterlimit="10"/>
<path d="M8.00024 12.8321C8.48625 12.8321 8.88024 12.4381 8.88024 11.9521C8.88024 11.4661 8.48625 11.0721 8.00024 11.0721C7.51423 11.0721 7.12024 11.4661 7.12024 11.9521C7.12024 12.4381 7.51423 12.8321 8.00024 12.8321Z" fill="#A2A2A2"/>
<path d="M8.00069 3.20001C7.25935 3.19996 6.5479 3.49225 6.02071 4.01345C5.49352 4.53465 5.19312 5.24272 5.18469 5.98401C5.18469 6.17072 5.25886 6.34979 5.39089 6.48182C5.52291 6.61384 5.70198 6.68801 5.88869 6.68801C6.0754 6.68801 6.25447 6.61384 6.3865 6.48182C6.51852 6.34979 6.59269 6.17072 6.59269 5.98401C6.59269 5.70554 6.67527 5.43331 6.82998 5.20177C6.9847 4.97022 7.2046 4.78976 7.46187 4.68319C7.71915 4.57662 8.00225 4.54874 8.27538 4.60307C8.5485 4.65739 8.79939 4.79149 8.9963 4.98841C9.19321 5.18532 9.32731 5.4362 9.38164 5.70933C9.43597 5.98245 9.40808 6.26555 9.30152 6.52283C9.19495 6.78011 9.01448 7.00001 8.78293 7.15472C8.55139 7.30943 8.27917 7.39201 8.00069 7.39201C7.81672 7.39196 7.64004 7.46394 7.50846 7.59252C7.37689 7.72111 7.30087 7.89609 7.29669 8.08001V9.84001C7.29669 10.0267 7.37086 10.2058 7.50289 10.3378C7.63491 10.4698 7.81398 10.544 8.00069 10.544C8.1874 10.544 8.36647 10.4698 8.4985 10.3378C8.63052 10.2058 8.70469 10.0267 8.70469 9.84001V8.70401C9.33846 8.50847 9.88287 8.0955 10.242 7.53789C10.6011 6.98027 10.7519 6.31379 10.6677 5.65591C10.5836 4.99802 10.2699 4.39095 9.782 3.94167C9.2941 3.49239 8.66327 3.22974 8.00069 3.20001Z" fill="#A2A2A2"/>
</svg>
