<svg width="10" height="10" viewBox="0 0 10 10" fill="none" xmlns="http://www.w3.org/2000/svg">
<rect x="0.625" y="0.625" width="8.75" height="5" rx="0.3125" stroke="#A2A2A2" stroke-width="0.46875"/>
<path d="M5.61331 3.01504L4.57331 2.26504C4.55334 2.25064 4.52976 2.24208 4.50521 2.24033C4.48066 2.23857 4.4561 2.2437 4.4343 2.25512C4.4125 2.26654 4.3943 2.28381 4.38176 2.30499C4.36922 2.32617 4.36283 2.35043 4.36331 2.37504V3.87504C4.3631 3.91047 4.37692 3.94455 4.40174 3.96984C4.42656 3.99513 4.46037 4.00958 4.49581 4.01004C4.52371 4.01059 4.55099 4.00179 4.57331 3.98504L5.61331 3.23504C5.63038 3.22223 5.64424 3.20562 5.65379 3.18653C5.66334 3.16744 5.66831 3.14638 5.66831 3.12504C5.66831 3.10369 5.66334 3.08264 5.65379 3.06355C5.64424 3.04445 5.63038 3.02784 5.61331 3.01504Z" fill="#A2A2A2"/>
<path d="M1.875 6.875C1.875 6.52982 2.15482 6.25 2.5 6.25H3C3.34518 6.25 3.625 6.52982 3.625 6.875V7.5H1.875V6.875Z" stroke="#A2A2A2" stroke-width="0.46875"/>
<path d="M4.20898 6.875C4.20898 6.52982 4.48881 6.25 4.83398 6.25H5.33398C5.67916 6.25 5.95898 6.52982 5.95898 6.875V7.5H4.20898V6.875Z" stroke="#A2A2A2" stroke-width="0.46875"/>
<path d="M6.54102 6.875C6.54102 6.52982 6.82084 6.25 7.16602 6.25H7.66602C8.01119 6.25 8.29102 6.52982 8.29102 6.875V7.5H6.54102V6.875Z" stroke="#A2A2A2" stroke-width="0.46875"/>
<path d="M0.625 8.75C0.625 8.40482 0.904822 8.125 1.25 8.125H1.75C2.09518 8.125 2.375 8.40482 2.375 8.75V9.375H0.625V8.75Z" stroke="#A2A2A2" stroke-width="0.46875"/>
<path d="M2.95898 8.75C2.95898 8.40482 3.23881 8.125 3.58398 8.125H4.08398C4.42916 8.125 4.70898 8.40482 4.70898 8.75V9.375H2.95898V8.75Z" stroke="#A2A2A2" stroke-width="0.46875"/>
<path d="M5.29102 8.75C5.29102 8.40482 5.57084 8.125 5.91602 8.125H6.41602C6.76119 8.125 7.04102 8.40482 7.04102 8.75V9.375H5.29102V8.75Z" stroke="#A2A2A2" stroke-width="0.46875"/>
<path d="M7.625 8.75C7.625 8.40482 7.90482 8.125 8.25 8.125H8.75C9.09518 8.125 9.375 8.40482 9.375 8.75V9.375H7.625V8.75Z" stroke="#A2A2A2" stroke-width="0.46875"/>
</svg>
