<svg width="22" height="22" viewBox="0 0 22 22" fill="none" xmlns="http://www.w3.org/2000/svg">
<path d="M21.74 7.58475L19.88 5.73475C19.59 5.45475 19.13 5.44475 18.83 5.71475C17.87 6.58475 16.74 6.23475 16.26 5.80475C15.92 5.50475 15.71 5.16475 15.64 4.75475C15.52 4.10475 15.68 3.54475 16.15 3.05475C16.43 2.76475 16.42 2.30475 16.13 2.01475L14.27 0.184752C14.11 0.0247521 13.87 -0.0152479 13.65 0.00475209C13.43 0.0247521 13.2 0.174752 13.08 0.354752L0.37 12.9148L0.24 13.0248C0.09 13.1648 0 13.4048 0 13.6148C0 13.8248 0.09 14.0148 0.24 14.1648L0.39 14.2948C0.49 14.3848 0.58 14.4748 0.67 14.5648L2.05 15.9248C2.34 16.2148 2.8 16.2148 3.1 15.9448C3.59 15.4948 4.1 15.3248 4.73 15.4048C5.19 15.4648 5.57 15.6648 5.89 16.0248C6.34 16.5248 6.69 17.6348 5.78 18.6048C5.5 18.9048 5.51 19.3648 5.81 19.6548L5.95 19.7848C6.05 19.8748 6.14 19.9648 6.23 20.0548L7.59 21.4248C7.73 21.5648 7.97 21.6448 8.17 21.6448C8.39 21.6448 8.59 21.5548 8.73 21.3948L8.82 21.2948C13.04 17.1248 17.25 12.9548 21.47 8.78475C21.5 8.77475 21.54 8.75475 21.56 8.74475C21.77 8.63475 21.91 8.42475 21.94 8.19475C21.97 7.96475 21.89 7.72475 21.73 7.56475L21.74 7.58475ZM11.35 6.01475C11.15 6.21475 10.83 6.21475 10.63 6.01475C10.43 5.81475 10.43 5.50475 10.63 5.30475C10.83 5.10475 11.15 5.10475 11.35 5.30475C11.55 5.50475 11.55 5.81475 11.35 6.01475ZM12.4 7.05475C12.2 7.25475 11.88 7.25475 11.68 7.05475C11.48 6.85475 11.48 6.54475 11.68 6.34475C11.88 6.14475 12.2 6.14475 12.4 6.34475C12.6 6.54475 12.6 6.85475 12.4 7.05475ZM13.45 8.09475C13.25 8.29475 12.93 8.29475 12.73 8.09475C12.53 7.89475 12.53 7.58475 12.73 7.38475C12.93 7.18475 13.25 7.18475 13.45 7.38475C13.65 7.58475 13.65 7.89475 13.45 8.09475ZM14.5 9.13475C14.3 9.33475 13.98 9.33475 13.78 9.13475C13.58 8.93475 13.58 8.62475 13.78 8.42475C13.98 8.22475 14.3 8.22475 14.5 8.42475C14.7 8.62475 14.7 8.93475 14.5 9.13475ZM15.55 10.1748C15.35 10.3748 15.03 10.3748 14.83 10.1748C14.63 9.97475 14.63 9.66475 14.83 9.46475C15.03 9.26475 15.35 9.26475 15.55 9.46475C15.75 9.66475 15.75 9.97475 15.55 10.1748ZM16.6 11.2148C16.4 11.4148 16.08 11.4148 15.88 11.2148C15.68 11.0148 15.68 10.7048 15.88 10.5048C16.08 10.3048 16.4 10.3048 16.6 10.5048C16.8 10.7048 16.8 11.0148 16.6 11.2148Z" fill="#147EB5"/>
</svg>
