<svg width="20" height="20" viewBox="0 0 20 20" xmlns="http://www.w3.org/2000/svg">
<defs><style>.a{fill:#A2A2A2;}</style></defs>
<path d="M8.22099 18.8601L6.22099 16.8601C6.17316 16.8152 6.13504 16.761 6.10898 16.7008C6.08292 16.6406 6.06947 16.5757 6.06947 16.5101C6.06947 16.4445 6.08292 16.3796 6.10898 16.3194C6.13504 16.2592 6.17316 16.205 6.22099 16.1601C6.43324 15.8199 6.52438 15.4179 6.47965 15.0194C6.43492 14.6209 6.25694 14.2492 5.97454 13.9645C5.69214 13.6798 5.32188 13.4987 4.92375 13.4508C4.52561 13.4028 4.12295 13.4906 3.78099 13.7001C3.7361 13.7479 3.68188 13.7861 3.62168 13.8121C3.56149 13.8382 3.49659 13.8516 3.43099 13.8516C3.36539 13.8516 3.30049 13.8382 3.24029 13.8121C3.1801 13.7861 3.12588 13.7479 3.08099 13.7001L1.08099 11.7001C0.992437 11.6011 0.943481 11.4729 0.943481 11.3401C0.943481 11.2073 0.992437 11.0791 1.08099 10.9801L11.081 0.980098C11.18 0.891546 11.3082 0.84259 11.441 0.84259C11.5738 0.84259 11.702 0.891546 11.801 0.980098L13.801 2.9801C13.8488 3.02499 13.8869 3.07921 13.913 3.1394C13.9391 3.1996 13.9525 3.2645 13.9525 3.3301C13.9525 3.39569 13.9391 3.4606 13.913 3.52079C13.8869 3.58099 13.8488 3.63521 13.801 3.6801C13.6214 3.83696 13.4751 4.02823 13.3707 4.24261C13.2663 4.45699 13.2059 4.69012 13.1931 4.92823C13.1804 5.16634 13.2155 5.40459 13.2964 5.6289C13.3773 5.85321 13.5023 6.05903 13.6641 6.23419C13.8259 6.40935 14.0211 6.5503 14.2383 6.64871C14.4555 6.74712 14.6902 6.80099 14.9286 6.80713C15.167 6.81328 15.4042 6.77157 15.6261 6.68448C15.8481 6.5974 16.0504 6.46669 16.221 6.3001C16.2659 6.25227 16.3201 6.21415 16.3803 6.18809C16.4405 6.16202 16.5054 6.14858 16.571 6.14858C16.6366 6.14858 16.7015 6.16202 16.7617 6.18809C16.8219 6.21415 16.8761 6.25227 16.921 6.3001L18.921 8.3001C19.0095 8.3991 19.0585 8.52727 19.0585 8.6601C19.0585 8.79293 19.0095 8.92109 18.921 9.0201L8.92099 19.0201C8.80498 19.0839 8.66959 19.1028 8.54054 19.0733C8.41149 19.0438 8.29777 18.9679 8.22099 18.8601ZM7.34099 16.5401L8.58099 17.8001L17.801 8.5801L16.541 7.3401C16.0026 7.69617 15.3577 7.85528 14.7154 7.79048C14.0731 7.72569 13.473 7.44097 13.0166 6.98452C12.5601 6.52808 12.2754 5.92794 12.2106 5.28569C12.1458 4.64343 12.3049 3.99852 12.661 3.4601L11.421 2.2001L2.20099 11.4201L3.46099 12.6601C3.99941 12.304 4.64432 12.1449 5.28658 12.2097C5.92883 12.2745 6.52897 12.5592 6.98541 13.0157C7.44186 13.4721 7.72658 14.0723 7.79137 14.7145C7.85617 15.3568 7.69706 16.0017 7.34099 16.5401Z" />
<circle cx="9.40015" cy="5.93198" r="0.446844" transform="rotate(45 9.40015 5.93198)" />
<circle cx="10.3259" cy="6.8588" r="0.446844" transform="rotate(45 10.3259 6.8588)" />
<circle cx="11.2532" cy="7.78595" r="0.446844" transform="rotate(45 11.2532 7.78595)" />
<circle cx="12.1803" cy="8.71277" r="0.446844" transform="rotate(45 12.1803 8.71277)" />
<circle cx="13.1061" cy="9.63959" r="0.446844" transform="rotate(45 13.1061 9.63959)" />
<circle cx="14.0332" cy="10.5661" r="0.446844" transform="rotate(45 14.0332 10.5661)" />
</svg>
