<svg width="30" height="30" viewBox="0 0 20 16" fill="none" xmlns="http://www.w3.org/2000/svg">
<path d="M14.0165 13.808C13.8573 12.7424 13.42 11.7376 12.7487 10.8949C12.0773 10.0521 11.1956 9.40133 10.1925 9.00805C10.8653 8.629 11.4256 8.07835 11.8163 7.41222C12.207 6.74609 12.4141 5.98829 12.4165 5.21605C12.4165 4.04485 11.9512 2.92163 11.1231 2.09347C10.2949 1.2653 9.17169 0.800049 8.00049 0.800049C6.8293 0.800049 5.70607 1.2653 4.87791 2.09347C4.04975 2.92163 3.58449 4.04485 3.58449 5.21605C3.58407 5.99101 3.78983 6.75213 4.18066 7.42131C4.57149 8.0905 5.13331 8.64367 5.80849 9.02405C4.80538 9.41733 3.92369 10.0681 3.25232 10.9109C2.58096 11.7536 2.14365 12.7584 1.98449 13.824C1.95963 13.9917 1.97104 14.1627 2.01797 14.3256C2.06489 14.4884 2.14623 14.6393 2.25649 14.768C2.37557 14.9012 2.5209 15.0084 2.68335 15.0827C2.8458 15.157 3.02187 15.197 3.20049 15.2H12.8005C12.9857 15.1995 13.1687 15.1592 13.3371 15.0819C13.5054 15.0046 13.6553 14.8921 13.7765 14.752C13.8812 14.6207 13.9567 14.4686 13.9981 14.3059C14.0394 14.1431 14.0457 13.9734 14.0165 13.808V13.808ZM4.59249 5.21605C4.58933 4.54134 4.78651 3.88087 5.15905 3.31833C5.5316 2.75578 6.06274 2.31648 6.68518 2.05608C7.30763 1.79568 7.99336 1.72591 8.6555 1.85559C9.31764 1.98528 9.92638 2.30859 10.4046 2.78457C10.8828 3.26054 11.209 3.86775 11.3418 4.52927C11.4746 5.19079 11.408 5.87685 11.1506 6.50051C10.8931 7.12417 10.4563 7.65738 9.89553 8.03257C9.33475 8.40776 8.67521 8.60804 8.00049 8.60805C7.0994 8.60806 6.23498 8.2512 5.59631 7.61553C4.95765 6.97986 4.59672 6.11713 4.59249 5.21605ZM12.9765 14.096C12.9551 14.1231 12.9285 14.1455 12.8983 14.162C12.868 14.1785 12.8348 14.1887 12.8005 14.192H3.20049C3.16075 14.1933 3.12126 14.1853 3.08516 14.1686C3.04905 14.1519 3.01733 14.1271 2.99249 14.096C2.97986 14.0742 2.9732 14.0493 2.9732 14.024C2.9732 13.9988 2.97986 13.9739 2.99249 13.952C3.16057 12.7391 3.76183 11.6278 4.68525 10.8235C5.60868 10.0192 6.79191 9.57619 8.01649 9.57619C9.24108 9.57619 10.4243 10.0192 11.3477 10.8235C12.2712 11.6278 12.8724 12.7391 13.0405 13.952C13.045 13.9797 13.0413 14.008 13.0299 14.0336C13.0186 14.0592 13 14.0809 12.9765 14.096V14.096Z" fill="#A2A2A2"/>
<path d="M15 6C14.2089 6 13.4355 6.2346 12.7777 6.67412C12.1199 7.11365 11.6072 7.73836 11.3045 8.46927C11.0017 9.20017 10.9225 10.0044 11.0769 10.7804C11.2312 11.5563 11.6122 12.269 12.1716 12.8284C12.731 13.3878 13.4437 13.7688 14.2196 13.9231C14.9956 14.0775 15.7998 13.9983 16.5307 13.6955C17.2616 13.3928 17.8864 12.8801 18.3259 12.2223C18.7654 11.5645 19 10.7911 19 10C19 8.93913 18.5786 7.92172 17.8284 7.17157C17.0783 6.42143 16.0609 6 15 6V6ZM17 11.376L16.368 12L15 10.624L13.632 12L13 11.368L14.376 10L13 8.632L13.624 8L15 9.376L16.376 8L17 8.624L15.624 10L17 11.376Z" fill="#A2A2A2"/>
</svg>
