<svg width="20" height="20" viewBox="0 0 20 20" xmlns="http://www.w3.org/2000/svg">
<path d="M17.5209 17.26C17.3219 15.928 16.7753 14.6719 15.9361 13.6185C15.0969 12.5651 13.9948 11.7516 12.7409 11.26C13.5819 10.7862 14.2823 10.0979 14.7706 9.26522C15.259 8.43255 15.5179 7.4853 15.5209 6.52C15.5209 5.05601 14.9393 3.65197 13.9041 2.61677C12.8689 1.58157 11.4649 1 10.0009 1C8.53687 1 7.13283 1.58157 6.09763 2.61677C5.06243 3.65197 4.48086 5.05601 4.48086 6.52C4.48033 7.4887 4.73753 8.4401 5.22607 9.27658C5.7146 10.1131 6.41689 10.8045 7.26086 11.28C6.00697 11.7716 4.90486 12.5851 4.06565 13.6385C3.22644 14.6919 2.67981 15.948 2.48086 17.28C2.44978 17.4896 2.46404 17.7034 2.5227 17.9069C2.58136 18.1105 2.68304 18.2991 2.82086 18.46C2.96971 18.6265 3.15137 18.7604 3.35443 18.8533C3.55749 18.9462 3.77758 18.9962 4.00086 19H16.0009C16.2324 18.9993 16.4611 18.9489 16.6716 18.8523C16.882 18.7557 17.0693 18.6151 17.2209 18.44C17.3517 18.2758 17.4461 18.0857 17.4978 17.8823C17.5495 17.6788 17.5574 17.4667 17.5209 17.26ZM5.74086 6.52C5.7369 5.67661 5.98338 4.85103 6.44906 4.14785C6.91474 3.44467 7.57867 2.89554 8.35672 2.57004C9.13478 2.24454 9.99195 2.15732 10.8196 2.31943C11.6473 2.48154 12.4082 2.88568 13.006 3.48065C13.6038 4.07561 14.0115 4.83463 14.1775 5.66153C14.3435 6.48843 14.2603 7.346 13.9385 8.12558C13.6166 8.90516 13.0706 9.57166 12.3697 10.0406C11.6687 10.5096 10.8443 10.76 10.0009 10.76C8.8745 10.76 7.79397 10.3139 6.99564 9.51935C6.1973 8.72477 5.74615 7.64635 5.74086 6.52ZM16.2209 17.62C16.1942 17.6538 16.1609 17.6818 16.1231 17.7024C16.0853 17.7231 16.0437 17.7358 16.0009 17.74H4.00086C3.95118 17.7416 3.90182 17.7315 3.85669 17.7107C3.81156 17.6899 3.7719 17.6588 3.74086 17.62C3.72506 17.5926 3.71675 17.5616 3.71675 17.53C3.71675 17.4984 3.72506 17.4674 3.74086 17.44C3.95096 15.9238 4.70253 14.5347 5.85681 13.5294C7.01109 12.524 8.49013 11.9702 10.0209 11.9702C11.5516 11.9702 13.0306 12.524 14.1849 13.5294C15.3392 14.5347 16.0908 15.9238 16.3009 17.44C16.3065 17.4745 16.3019 17.5099 16.2877 17.5419C16.2735 17.5739 16.2502 17.601 16.2209 17.62Z" />
</svg>
