<svg width="48" height="32" viewBox="0 0 48 32" fill="none" xmlns="http://www.w3.org/2000/svg">
<path d="M47.9997 6.66675H0V25.3333H47.9997V6.66675Z" fill="white"/>
<path d="M17.6436 21.5585H20.7512L22.6966 10.4692H19.5869L17.6436 21.5585Z" fill="#1A1F71"/>
<path d="M28.9634 14.922C27.8765 14.4087 27.2114 14.0667 27.2183 13.5467C27.2183 13.086 27.7812 12.5934 29.0011 12.5934C29.7988 12.576 30.5915 12.7207 31.3284 13.018L31.6027 13.146L32.0244 10.7427C31.1312 10.4282 30.1877 10.2702 29.2377 10.276C26.1657 10.276 24.0016 11.78 23.9838 13.936C23.9659 15.5293 25.528 16.418 26.7074 16.9487C27.9177 17.492 28.3243 17.8387 28.3188 18.324C28.3113 19.0673 27.3527 19.4067 26.4585 19.4067C25.45 19.4356 24.4484 19.2363 23.5326 18.8247L23.1314 18.6487L22.6953 21.1306C23.8039 21.5287 24.9771 21.7293 26.1588 21.7226C29.4262 21.7226 31.5478 20.236 31.5725 17.934C31.5856 16.6733 30.7572 15.7133 28.9634 14.922Z" fill="#1A1F71"/>
<path d="M39.9983 10.4796H37.5983C37.2606 10.4373 36.918 10.5046 36.6237 10.6709C36.3294 10.8373 36.0997 11.0934 35.9704 11.3996L31.3535 21.5615H34.6182C34.6182 21.5615 35.1517 20.1955 35.2723 19.8949L39.2543 19.8995C39.3468 20.2875 39.6328 21.5609 39.6328 21.5609H42.5169L39.9983 10.4796ZM36.1645 17.6269C36.4216 16.9882 37.4029 14.5276 37.4029 14.5276C37.385 14.5569 37.6586 13.8856 37.8143 13.4689L38.0241 14.4249L38.7441 17.6249L36.1645 17.6269Z" fill="#1A1F71"/>
<path d="M15.0378 10.4791L11.9946 18.0391L11.6703 16.5057L10.58 11.4098C10.4997 11.1155 10.3131 10.8593 10.0543 10.6879C9.79552 10.5165 9.48191 10.4414 9.17088 10.4764H4.15696L4.11719 10.7071C5.2611 10.974 6.36222 11.3914 7.39009 11.9478L10.1473 21.555L13.4346 21.5457L18.3313 10.4791H15.0378Z" fill="#1A1F71"/>
<path d="M47.9997 6.66663H0V2.66665C0 1.95941 0.288978 1.28114 0.803361 0.781047C1.31774 0.280953 2.0154 0 2.74284 0H45.2569C45.9844 0 46.682 0.280953 47.1964 0.781047C47.7108 1.28114 47.9997 1.95941 47.9997 2.66665V6.66663Z" fill="#1A1F71"/>
<path d="M0 25.3333H47.9997V29.3332C47.9997 30.0405 47.7108 30.7187 47.1964 31.2188C46.682 31.7189 45.9844 31.9999 45.2569 31.9999H2.74284C2.0154 31.9999 1.31774 31.7189 0.803361 31.2188C0.288978 30.7187 0 30.0405 0 29.3332V25.3333Z" fill="#F7B600"/>
</svg>
